# Blender v2.80 (sub 75) OBJ File: ''
# www.blender.org
o Cube
v 0.383103 0.548090 0.277957
v -0.146329 0.548090 0.449748
v -0.473545 0.548090 -0.000000
v -0.146329 0.548090 -0.449748
v 0.383103 0.548090 -0.277957
v 0.162679 1.168329 0.500000
v -0.425908 1.168329 0.309014
v -0.425908 1.168329 -0.309014
v 0.162679 1.168329 -0.500000
v 0.526455 1.168329 0.000000
v 0.000000 1.500000 0.000000
v 0.000000 0.000000 -0.133486
v -0.000000 0.736169 -0.087757
v 0.115760 0.000000 0.066743
v 0.076104 0.736169 0.043879
v -0.115760 0.000000 0.066743
v -0.076104 0.736169 0.043879
vt 0.057430 0.659764
vt 0.231295 0.129306
vt 0.273591 0.445972
vt 0.508198 0.989044
vt 0.357732 0.707218
vt 0.960660 0.662089
vt 0.632195 0.707925
vt 0.789521 0.130738
vt 0.717680 0.447114
vt 0.496049 0.285218
vt 0.495449 0.518689
vt -0.000000 0.000000
vt 1.000000 0.000000
vt 1.000000 0.125000
vt -0.000000 0.125000
vt -0.000000 0.000000
vt 1.000000 -0.000000
vt 1.000000 0.125000
vt -0.000000 0.125000
vt -0.000000 0.000000
vt 1.000000 0.000000
vt 1.000000 0.125000
vt 0.000000 0.125000
vn 0.7982 -0.1620 0.5802
vn 0.7982 -0.1620 -0.5802
vn 0.9114 0.4114 0.0000
vn -0.3048 -0.1619 0.9386
vn 0.2816 0.4113 0.8669
vn -0.9868 -0.1621 0.0000
vn -0.7373 0.4113 0.5359
vn -0.3048 -0.1619 -0.9386
vn -0.7373 0.4113 -0.5359
vn 0.2816 0.4113 -0.8669
vn 0.0000 1.0000 0.0000
vn 0.0000 0.0620 -0.9980
vn 0.8645 0.0620 0.4988
vn -0.8645 0.0620 0.4988
s 1
f 1/1/1 5/2/2 10/3/3
f 2/4/4 1/1/1 6/5/5
f 3/6/6 2/4/4 7/7/7
f 4/8/8 3/6/6 8/9/9
f 5/2/2 4/8/8 9/10/10
f 1/1/1 10/3/3 6/5/5
f 2/4/4 6/5/5 7/7/7
f 3/6/6 7/7/7 8/9/9
f 4/8/8 8/9/9 9/10/10
f 5/2/2 9/10/10 10/3/3
f 6/5/5 10/3/3 11/11/11
f 7/7/7 6/5/5 11/11/11
f 8/9/9 7/7/7 11/11/11
f 9/10/10 8/9/9 11/11/11
f 10/3/3 9/10/10 11/11/11
f 12/12/12 13/13/12 15/14/13 14/15/13
f 14/16/13 15/17/13 17/18/14 16/19/14
f 16/20/14 17/21/14 13/22/12 12/23/12
