# Blender v2.80 (sub 75) OBJ File: ''
# www.blender.org
o Cube
v 0.000000 0.826287 -0.083988
v -0.000000 1.000000 0.000000
v 0.072736 0.826287 -0.041994
v 0.072736 0.826287 0.041994
v -0.000000 0.826287 0.083988
v -0.072736 0.826287 0.041994
v -0.072736 0.826287 -0.041994
v 0.000000 0.709561 -0.205772
v 0.178204 0.709561 -0.102886
v 0.178204 0.709561 0.102886
v -0.000000 0.709561 0.205772
v -0.178204 0.709561 0.102886
v -0.178204 0.709561 -0.102886
v 0.061578 0.000000 -0.033043
v 0.000000 0.000000 -0.076408
v 0.000000 0.063854 -0.052760
v -0.000000 0.336441 -0.037012
v 0.034787 0.063854 -0.021219
v 0.032053 0.336441 -0.018506
v 0.045691 0.063854 0.026380
v 0.032053 0.336441 0.018506
v -0.000000 0.063854 0.052760
v -0.000000 0.336441 0.037012
v -0.052038 0.063854 0.026380
v -0.032053 0.336441 0.018506
v -0.042804 0.066272 -0.018168
v -0.032053 0.336441 -0.018506
v 0.066171 0.000000 0.038204
v -0.001284 0.000000 0.094248
v -0.077218 0.000000 0.041291
v -0.066171 0.000000 -0.038204
v -0.000343 0.194429 -0.042229
v 0.033191 0.197132 -0.017505
v 0.038843 0.202553 0.024427
v 0.000082 0.206126 0.046780
v -0.042064 0.203903 0.024637
v -0.037621 0.199711 -0.015965
v -0.129475 0.685246 0.000000
v -0.000000 0.894728 0.000000
v -0.064737 0.685246 -0.112128
v 0.064737 0.685246 -0.112128
v 0.129475 0.685246 0.000000
v 0.064737 0.685246 0.112128
v -0.064737 0.685246 0.112128
v -0.246693 0.544241 0.000000
v -0.123346 0.544241 -0.213642
v 0.123346 0.544241 -0.213642
v 0.246693 0.544241 0.000000
v 0.123346 0.544241 0.213642
v -0.123346 0.544241 0.213642
v 0.000000 0.538738 0.172562
v -0.000000 0.807910 0.000000
v -0.149443 0.538738 0.086281
v -0.149443 0.538738 -0.086281
v -0.000000 0.538738 -0.172562
v 0.149443 0.538738 -0.086281
v 0.149443 0.538738 0.086281
v 0.000000 0.326305 0.328788
v -0.284739 0.326305 0.164394
v -0.284739 0.326305 -0.164394
v -0.000000 0.326305 -0.328788
v 0.284739 0.326305 -0.164394
v 0.284739 0.326305 0.164394
v 0.190118 0.338574 0.000000
v -0.000000 0.794288 0.000000
v 0.095059 0.338574 0.164647
v -0.095059 0.338574 0.164647
v -0.190118 0.338574 -0.000000
v -0.095059 0.338574 -0.164647
v 0.095059 0.338574 -0.164647
v 0.362239 0.097036 -0.000000
v 0.181120 0.097036 0.313708
v -0.181120 0.097036 0.313708
v -0.362239 0.097036 -0.000000
v -0.181119 0.097036 -0.313708
v 0.181119 0.097036 -0.313708
v 0.000000 0.826287 -0.083988
v -0.000000 1.000000 0.000000
v 0.072736 0.826287 -0.041994
v 0.072736 0.826287 0.041994
v -0.000000 0.826287 0.083988
v -0.072736 0.826287 0.041994
v -0.072736 0.826287 -0.041994
v 0.000000 0.709561 -0.205772
v 0.178204 0.709561 -0.102886
v 0.178204 0.709561 0.102886
v -0.000000 0.709561 0.205772
v -0.178204 0.709561 0.102886
v -0.178204 0.709561 -0.102886
v -0.129475 0.685246 0.000000
v -0.000000 0.894728 0.000000
v -0.064737 0.685246 -0.112128
v 0.064737 0.685246 -0.112128
v 0.129475 0.685246 0.000000
v 0.064737 0.685246 0.112128
v -0.064737 0.685246 0.112128
v -0.246693 0.544241 0.000000
v -0.123346 0.544241 -0.213642
v 0.123346 0.544241 -0.213642
v 0.246693 0.544241 0.000000
v 0.123346 0.544241 0.213642
v -0.123346 0.544241 0.213642
v 0.000000 0.538738 0.172562
v -0.000000 0.807910 0.000000
v -0.149443 0.538738 0.086281
v -0.149443 0.538738 -0.086281
v -0.000000 0.538738 -0.172562
v 0.149443 0.538738 -0.086281
v 0.149443 0.538738 0.086281
v 0.000000 0.326305 0.328788
v -0.284739 0.326305 0.164394
v -0.284739 0.326305 -0.164394
v -0.000000 0.326305 -0.328788
v 0.284739 0.326305 -0.164394
v 0.284739 0.326305 0.164394
v 0.190118 0.338574 0.000000
v -0.000000 0.794288 0.000000
v 0.095059 0.338574 0.164647
v -0.095059 0.338574 0.164647
v -0.190118 0.338574 -0.000000
v -0.095059 0.338574 -0.164647
v 0.095059 0.338574 -0.164647
v 0.362239 0.097036 -0.000000
v 0.181120 0.097036 0.313708
v -0.181120 0.097036 0.313708
v -0.362239 0.097036 -0.000000
v -0.181119 0.097036 -0.313708
v 0.181119 0.097036 -0.313708
vt 0.437623 0.750295
vt 0.500000 0.642254
vt 0.562377 0.750295
vt 0.624755 0.642254
vt 0.562377 0.534213
vt 0.437622 0.534213
vt 0.375245 0.642254
vt 0.703416 0.289927
vt 0.906832 0.642254
vt 0.703416 0.994581
vt 0.296584 0.994581
vt 0.093168 0.642254
vt 0.296584 0.289927
vt 0.115603 0.094399
vt 0.115603 0.140919
vt -0.000000 0.140919
vt -0.000000 0.094399
vt 0.557801 0.187439
vt 1.000000 0.187439
vt 1.000000 0.233959
vt 0.557801 0.233959
vt 0.115603 0.187439
vt -0.000000 0.187439
vt 1.000000 0.280478
vt 0.557801 0.280478
vt 0.115603 0.047880
vt -0.000000 0.047880
vt 0.557801 0.001360
vt 1.000000 0.001360
vt 1.000000 0.047880
vt 0.557801 0.047880
vt 0.115603 0.001360
vt -0.000000 0.001360
vt 1.000000 0.094399
vt 0.557801 0.094399
vt 1.000000 0.140919
vt 0.557801 0.140919
vt 0.115603 0.233959
vt -0.000000 0.233959
vt 0.115603 0.280478
vt -0.000000 0.280478
vt 0.437623 0.750295
vt 0.500000 0.642254
vt 0.562377 0.750295
vt 0.624755 0.642254
vt 0.562377 0.534213
vt 0.437622 0.534213
vt 0.375245 0.642254
vt 0.703416 0.289927
vt 0.906832 0.642254
vt 0.703416 0.994581
vt 0.296584 0.994581
vt 0.093168 0.642254
vt 0.296584 0.289927
vt 0.437623 0.750295
vt 0.500000 0.642254
vt 0.562377 0.750295
vt 0.624755 0.642254
vt 0.562377 0.534213
vt 0.437622 0.534213
vt 0.375245 0.642254
vt 0.703416 0.289927
vt 0.906832 0.642254
vt 0.703416 0.994581
vt 0.296584 0.994581
vt 0.093168 0.642254
vt 0.296584 0.289927
vt 0.437623 0.750295
vt 0.500000 0.642254
vt 0.562377 0.750295
vt 0.624755 0.642254
vt 0.562377 0.534213
vt 0.437622 0.534213
vt 0.375245 0.642254
vt 0.703416 0.289927
vt 0.906832 0.642254
vt 0.703416 0.994581
vt 0.296584 0.994581
vt 0.093168 0.642254
vt 0.296584 0.289927
vt 0.437623 0.750295
vt 0.562377 0.750295
vt 0.500000 0.642254
vt 0.624755 0.642254
vt 0.562377 0.534213
vt 0.437622 0.534213
vt 0.375245 0.642254
vt 0.906832 0.642254
vt 0.703416 0.289927
vt 0.703416 0.994581
vt 0.093168 0.642254
vt 0.296584 0.994581
vt 0.296584 0.289927
vt 0.437623 0.750295
vt 0.562377 0.750295
vt 0.500000 0.642254
vt 0.624755 0.642254
vt 0.562377 0.534213
vt 0.437622 0.534213
vt 0.375245 0.642254
vt 0.906832 0.642254
vt 0.703416 0.289927
vt 0.703416 0.994581
vt 0.093168 0.642254
vt 0.296584 0.994581
vt 0.296584 0.289927
vt 0.437623 0.750295
vt 0.562377 0.750295
vt 0.500000 0.642254
vt 0.624755 0.642254
vt 0.562377 0.534213
vt 0.437622 0.534213
vt 0.375245 0.642254
vt 0.906832 0.642254
vt 0.703416 0.289927
vt 0.703416 0.994581
vt 0.093168 0.642254
vt 0.296584 0.994581
vt 0.296584 0.289927
vt 0.437623 0.750295
vt 0.562377 0.750295
vt 0.500000 0.642254
vt 0.624755 0.642254
vt 0.562377 0.534213
vt 0.437622 0.534213
vt 0.375245 0.642254
vt 0.906832 0.642254
vt 0.703416 0.289927
vt 0.703416 0.994581
vt 0.093168 0.642254
vt 0.296584 0.994581
vt 0.296584 0.289927
vn 0.0000 0.6167 -0.7871
vn 0.0000 1.0000 0.0000
vn 0.6817 0.6167 -0.3936
vn 0.6817 0.6167 0.3936
vn 0.0000 0.6167 0.7871
vn -0.6817 0.6167 0.3936
vn -0.6817 0.6167 -0.3936
vn 0.0000 0.7219 0.6919
vn 0.5992 0.7219 0.3460
vn 0.5992 0.7219 -0.3460
vn 0.0000 0.7219 -0.6919
vn -0.5992 0.7219 -0.3460
vn -0.5992 0.7219 0.3460
vn -0.8690 0.2901 0.4009
vn -0.8319 0.2246 -0.5074
vn -0.7703 0.3811 -0.5111
vn -0.8043 0.4587 0.3778
vn 0.0117 0.0414 -0.9991
vn 0.0060 0.0201 -0.9998
vn 0.8607 0.0229 -0.5087
vn 0.8611 0.0322 -0.5073
vn 0.0341 0.2610 -0.9647
vn 0.0329 0.4083 -0.9123
vn 0.8853 0.0537 0.4618
vn 0.8929 0.0473 0.4476
vn 0.0379 0.2857 0.9575
vn 0.0232 0.4814 0.8762
vn 0.0114 0.0776 0.9969
vn 0.0179 0.0611 0.9980
vn 0.8878 0.2550 0.3831
vn 0.8308 0.4190 0.3662
vn -0.8738 0.0749 0.4804
vn -0.8794 0.0665 0.4714
vn -0.8570 0.0418 -0.5136
vn -0.8593 0.0490 -0.5090
vn 0.8411 0.2097 -0.4985
vn 0.8138 0.3608 -0.4556
vn -0.8038 0.5949 0.0000
vn -0.4019 0.5949 -0.6961
vn 0.4019 0.5949 -0.6961
vn 0.8038 0.5949 0.0000
vn 0.4019 0.5949 0.6961
vn -0.4019 0.5949 0.6961
vn 0.7690 0.6392 0.0000
vn 0.3845 0.6392 -0.6659
vn -0.3845 0.6392 -0.6659
vn -0.7690 0.6392 0.0000
vn -0.3845 0.6392 0.6659
vn 0.3845 0.6392 0.6659
vn 0.0000 0.5712 0.8208
vn -0.7108 0.5712 0.4104
vn -0.7108 0.5712 -0.4104
vn 0.0000 0.5712 -0.8208
vn 0.7108 0.5712 -0.4104
vn 0.7108 0.5712 0.4104
vn 0.0000 0.5924 -0.8056
vn -0.6977 0.5924 -0.4028
vn -0.6977 0.5924 0.4028
vn 0.0000 0.5924 0.8056
vn 0.6977 0.5924 0.4028
vn 0.6977 0.5924 -0.4028
vn 0.8651 0.5016 0.0000
vn 0.4325 0.5016 0.7492
vn -0.4325 0.5016 0.7492
vn -0.8651 0.5016 0.0000
vn -0.4325 0.5016 -0.7492
vn 0.4325 0.5016 -0.7492
vn -0.8144 0.5803 0.0000
vn -0.4072 0.5803 0.7053
vn 0.4072 0.5803 0.7053
vn 0.8144 0.5803 0.0000
vn 0.4072 0.5803 -0.7053
vn -0.4072 0.5803 -0.7053
vn 0.0000 -0.6167 0.7871
vn -0.6817 -0.6167 0.3936
vn 0.0000 -1.0000 0.0000
vn -0.6817 -0.6167 -0.3936
vn 0.0000 -0.6167 -0.7871
vn 0.6817 -0.6167 -0.3936
vn 0.6817 -0.6167 0.3936
vn -0.5992 -0.7219 -0.3460
vn 0.0000 -0.7219 -0.6919
vn -0.5992 -0.7219 0.3460
vn 0.5992 -0.7219 0.3460
vn 0.0000 -0.7219 0.6919
vn 0.5992 -0.7219 -0.3460
vn 0.8038 -0.5949 0.0000
vn 0.4019 -0.5949 0.6961
vn -0.4019 -0.5949 0.6961
vn -0.8038 -0.5949 0.0000
vn -0.4019 -0.5949 -0.6961
vn 0.4019 -0.5949 -0.6961
vn -0.3845 -0.6392 0.6659
vn -0.7690 -0.6392 0.0000
vn 0.3845 -0.6392 0.6659
vn 0.3845 -0.6392 -0.6659
vn 0.7690 -0.6392 0.0000
vn -0.3845 -0.6392 -0.6659
vn 0.0000 -0.5712 -0.8208
vn 0.7108 -0.5712 -0.4104
vn 0.7108 -0.5712 0.4104
vn 0.0000 -0.5712 0.8208
vn -0.7108 -0.5712 0.4104
vn -0.7108 -0.5712 -0.4104
vn 0.6977 -0.5924 0.4028
vn 0.0000 -0.5924 0.8056
vn 0.6977 -0.5924 -0.4028
vn -0.6977 -0.5924 -0.4028
vn 0.0000 -0.5924 -0.8056
vn -0.6977 -0.5924 0.4028
vn -0.8651 -0.5016 0.0000
vn -0.4325 -0.5016 -0.7492
vn 0.4325 -0.5016 -0.7492
vn 0.8651 -0.5016 0.0000
vn 0.4325 -0.5016 0.7492
vn -0.4325 -0.5016 0.7492
vn 0.4072 -0.5803 -0.7053
vn 0.8144 -0.5803 0.0000
vn -0.4072 -0.5803 -0.7053
vn -0.4072 -0.5803 0.7053
vn -0.8144 -0.5803 0.0000
vn 0.4072 -0.5803 0.7053
s 1
f 1/1/1 2/2/2 3/3/3
f 3/3/3 2/2/2 4/4/4
f 4/4/4 2/2/2 5/5/5
f 5/5/5 2/2/2 6/6/6
f 6/6/6 2/2/2 7/7/7
f 7/7/7 2/2/2 1/1/1
f 4/4/4 5/5/5 11/8/8 10/9/9
f 3/3/3 4/4/4 10/9/9 9/10/10
f 7/7/7 1/1/1 8/11/11 13/12/12
f 1/1/1 3/3/3 9/10/10 8/11/11
f 6/6/6 7/7/7 13/12/12 12/13/13
f 5/5/5 6/6/6 12/13/13 11/8/8
f 24/14/14 26/15/15 31/16/16 30/17/17
f 32/18/18 17/19/19 19/20/20 33/21/21
f 26/15/15 16/22/22 15/23/23 31/16/16
f 33/21/21 19/20/20 21/24/24 34/25/25
f 22/26/26 24/14/14 30/17/17 29/27/27
f 34/28/25 21/29/24 23/30/28 35/31/29
f 20/32/30 22/26/26 29/27/27 28/33/31
f 35/31/29 23/30/28 25/34/32 36/35/33
f 36/35/33 25/34/32 27/36/34 37/37/35
f 16/22/22 18/38/36 14/39/37 15/23/23
f 37/37/35 27/36/34 17/19/19 32/18/18
f 18/38/36 20/40/30 28/41/31 14/39/37
f 26/15/15 37/37/35 32/18/18 16/22/22
f 24/14/14 36/35/33 37/37/35 26/15/15
f 22/26/26 35/31/29 36/35/33 24/14/14
f 20/32/30 34/28/25 35/31/29 22/26/26
f 18/38/36 33/21/21 34/25/25 20/40/30
f 16/22/22 32/18/18 33/21/21 18/38/36
f 38/42/38 39/43/2 40/44/39
f 40/44/39 39/43/2 41/45/40
f 41/45/40 39/43/2 42/46/41
f 42/46/41 39/43/2 43/47/42
f 43/47/42 39/43/2 44/48/43
f 44/48/43 39/43/2 38/42/38
f 41/45/40 42/46/41 48/49/44 47/50/45
f 40/44/39 41/45/40 47/50/45 46/51/46
f 44/48/43 38/42/38 45/52/47 50/53/48
f 38/42/38 40/44/39 46/51/46 45/52/47
f 43/47/42 44/48/43 50/53/48 49/54/49
f 42/46/41 43/47/42 49/54/49 48/49/44
f 51/55/50 52/56/2 53/57/51
f 53/57/51 52/56/2 54/58/52
f 54/58/52 52/56/2 55/59/53
f 55/59/53 52/56/2 56/60/54
f 56/60/54 52/56/2 57/61/55
f 57/61/55 52/56/2 51/55/50
f 54/58/52 55/59/53 61/62/56 60/63/57
f 53/57/51 54/58/52 60/63/57 59/64/58
f 57/61/55 51/55/50 58/65/59 63/66/60
f 51/55/50 53/57/51 59/64/58 58/65/59
f 56/60/54 57/61/55 63/66/60 62/67/61
f 55/59/53 56/60/54 62/67/61 61/62/56
f 64/68/62 65/69/2 66/70/63
f 66/70/63 65/69/2 67/71/64
f 67/71/64 65/69/2 68/72/65
f 68/72/65 65/69/2 69/73/66
f 69/73/66 65/69/2 70/74/67
f 70/74/67 65/69/2 64/68/62
f 67/71/64 68/72/65 74/75/68 73/76/69
f 66/70/63 67/71/64 73/76/69 72/77/70
f 70/74/67 64/68/62 71/78/71 76/79/72
f 64/68/62 66/70/63 72/77/70 71/78/71
f 69/73/66 70/74/67 76/79/72 75/80/73
f 68/72/65 69/73/66 75/80/73 74/75/68
f 77/81/74 79/82/75 78/83/76
f 79/82/75 80/84/77 78/83/76
f 80/84/77 81/85/78 78/83/76
f 81/85/78 82/86/79 78/83/76
f 82/86/79 83/87/80 78/83/76
f 83/87/80 77/81/74 78/83/76
f 80/84/77 86/88/81 87/89/82 81/85/78
f 79/82/75 85/90/83 86/88/81 80/84/77
f 83/87/80 89/91/84 84/92/85 77/81/74
f 77/81/74 84/92/85 85/90/83 79/82/75
f 82/86/79 88/93/86 89/91/84 83/87/80
f 81/85/78 87/89/82 88/93/86 82/86/79
f 90/94/87 92/95/88 91/96/76
f 92/95/88 93/97/89 91/96/76
f 93/97/89 94/98/90 91/96/76
f 94/98/90 95/99/91 91/96/76
f 95/99/91 96/100/92 91/96/76
f 96/100/92 90/94/87 91/96/76
f 93/97/89 99/101/93 100/102/94 94/98/90
f 92/95/88 98/103/95 99/101/93 93/97/89
f 96/100/92 102/104/96 97/105/97 90/94/87
f 90/94/87 97/105/97 98/103/95 92/95/88
f 95/99/91 101/106/98 102/104/96 96/100/92
f 94/98/90 100/102/94 101/106/98 95/99/91
f 103/107/99 105/108/100 104/109/76
f 105/108/100 106/110/101 104/109/76
f 106/110/101 107/111/102 104/109/76
f 107/111/102 108/112/103 104/109/76
f 108/112/103 109/113/104 104/109/76
f 109/113/104 103/107/99 104/109/76
f 106/110/101 112/114/105 113/115/106 107/111/102
f 105/108/100 111/116/107 112/114/105 106/110/101
f 109/113/104 115/117/108 110/118/109 103/107/99
f 103/107/99 110/118/109 111/116/107 105/108/100
f 108/112/103 114/119/110 115/117/108 109/113/104
f 107/111/102 113/115/106 114/119/110 108/112/103
f 116/120/111 118/121/112 117/122/76
f 118/121/112 119/123/113 117/122/76
f 119/123/113 120/124/114 117/122/76
f 120/124/114 121/125/115 117/122/76
f 121/125/115 122/126/116 117/122/76
f 122/126/116 116/120/111 117/122/76
f 119/123/113 125/127/117 126/128/118 120/124/114
f 118/121/112 124/129/119 125/127/117 119/123/113
f 122/126/116 128/130/120 123/131/121 116/120/111
f 116/120/111 123/131/121 124/129/119 118/121/112
f 121/125/115 127/132/122 128/130/120 122/126/116
f 120/124/114 126/128/118 127/132/122 121/125/115
