# Blender v2.80 (sub 75) OBJ File: ''
# www.blender.org
o Fence.005_Cube.005
v 0.530038 0.242130 -0.018139
v 0.521663 0.003796 -0.016961
v 0.530813 0.242598 0.020291
v 0.521581 0.002728 0.017981
v 0.490650 0.241509 -0.017062
v 0.481631 0.004865 -0.019566
v 0.488602 0.241385 0.020823
v 0.481165 0.007446 0.019739
v 0.526194 0.194838 -0.014581
v 0.524044 0.100287 -0.010500
v 0.485271 0.105493 0.018535
v 0.488810 0.198567 0.021201
v 0.530492 0.195079 0.020108
v 0.525875 0.101757 0.018900
v 0.487833 0.194234 -0.013562
v 0.484583 0.099989 -0.015269
v 0.019508 0.228825 -0.012899
v 0.020176 0.001793 -0.019323
v 0.019360 0.228701 0.022334
v 0.021964 -0.000330 0.015427
v -0.021270 0.228872 -0.016568
v -0.019913 0.000477 -0.019660
v -0.021228 0.228872 0.022884
v -0.017772 0.000711 0.018450
v 0.023396 0.196940 -0.010878
v 0.020835 0.100070 -0.011700
v -0.014566 0.099115 0.010237
v -0.013423 0.199781 0.012021
v 0.026603 0.197303 0.014589
v 0.025434 0.101385 0.012879
v -0.018047 0.199495 -0.010110
v -0.017286 0.099815 -0.014890
v 0.022007 0.152660 0.000527
v 0.017535 0.176937 0.006718
v 0.019073 0.153056 -0.007496
v 0.018633 0.178744 -0.008390
v 0.494308 0.195292 0.001900
v 0.488478 0.215435 0.002152
v 0.494712 0.192537 -0.010806
v 0.492235 0.217120 -0.008070
v 0.372187 0.185258 -0.012611
v 0.253220 0.178511 -0.013096
v 0.136865 0.165382 -0.007562
v 0.134681 0.188700 -0.005532
v 0.251847 0.196054 -0.011404
v 0.371882 0.211902 -0.011086
v 0.136924 0.163219 0.003022
v 0.253506 0.174066 0.006632
v 0.374712 0.188838 0.001657
v 0.373283 0.208287 0.003140
v 0.251405 0.197943 0.004019
v 0.134585 0.184370 0.004631
v 0.017443 0.059733 0.006694
v 0.019838 0.084179 0.006298
v 0.017463 0.058885 -0.006270
v 0.018872 0.083771 -0.004164
v 0.492069 0.072603 0.003794
v 0.491175 0.097488 0.002959
v 0.489806 0.068998 -0.012405
v 0.491382 0.090918 -0.011459
v 0.372127 0.070579 -0.012749
v 0.252956 0.061481 -0.014774
v 0.135130 0.063337 -0.007412
v 0.136655 0.083722 -0.007713
v 0.252316 0.092409 -0.012904
v 0.372263 0.093714 -0.010890
v 0.136845 0.064779 0.003387
v 0.252369 0.069019 0.004288
v 0.371430 0.071219 0.001196
v 0.372428 0.098973 0.004673
v 0.252146 0.095482 0.005020
v 0.136233 0.089503 0.004779
vt 0.039977 0.955978
vt 0.037228 0.958728
vt 0.037228 0.955978
vt 0.040897 0.961107
vt 0.042024 0.963362
vt 0.040897 0.963362
vt 0.039977 0.958728
vt 0.038602 0.961478
vt 0.038602 0.958728
vt 0.039977 0.964227
vt 0.037228 0.966977
vt 0.037228 0.964227
vt 0.039977 0.964227
vt 0.038602 0.964227
vt 0.035853 0.961478
vt 0.037228 0.964227
vt 0.035853 0.964227
vt 0.040665 0.961478
vt 0.039977 0.961478
vt 0.041352 0.961478
vt 0.040665 0.964227
vt 0.035165 0.961478
vt 0.034478 0.964227
vt 0.034478 0.961478
vt 0.035165 0.964227
vt 0.037228 0.961478
vt 0.037915 0.964227
vt 0.037915 0.961478
vt 0.037915 0.958728
vt 0.037228 0.958728
vt 0.037514 0.956597
vt 0.039769 0.958852
vt 0.037514 0.958852
vt 0.039769 0.958852
vt 0.038642 0.961107
vt 0.038642 0.958852
vt 0.039769 0.963362
vt 0.037514 0.965617
vt 0.037514 0.963362
vt 0.039769 0.963362
vt 0.038642 0.963362
vt 0.037514 0.961107
vt 0.036387 0.963362
vt 0.036387 0.961107
vt 0.040333 0.961107
vt 0.039769 0.961107
vt 0.040333 0.963362
vt 0.035823 0.961107
vt 0.035259 0.963362
vt 0.035259 0.961107
vt 0.035823 0.963362
vt 0.038078 0.961107
vt 0.037514 0.961107
vt 0.038078 0.963362
vt 0.037514 0.958852
vt 0.038078 0.958852
vt 0.042727 0.961478
vt 0.041352 0.964227
vt 0.037228 0.955978
vt 0.039977 0.958728
vt 0.037228 0.958728
vt 0.037228 0.960790
vt 0.039977 0.961478
vt 0.037228 0.961478
vt 0.037228 0.964227
vt 0.039977 0.966290
vt 0.037228 0.966977
vt 0.037228 0.966290
vt 0.036540 0.964227
vt 0.036540 0.961478
vt 0.042727 0.961478
vt 0.042039 0.964227
vt 0.042039 0.961478
vt 0.040665 0.961478
vt 0.039977 0.964227
vt 0.041352 0.964227
vt 0.040665 0.964227
vt 0.041352 0.961478
vt 0.035165 0.961478
vt 0.034478 0.964227
vt 0.034478 0.961478
vt 0.035853 0.964227
vt 0.035165 0.964227
vt 0.035853 0.961478
vt 0.037228 0.964915
vt 0.039977 0.965602
vt 0.037228 0.965602
vt 0.037228 0.959415
vt 0.039977 0.960103
vt 0.037228 0.960103
vt 0.037228 0.955978
vt 0.039977 0.958728
vt 0.037228 0.958728
vt 0.039977 0.960790
vt 0.037228 0.961478
vt 0.037228 0.960790
vt 0.039977 0.961478
vt 0.037228 0.964227
vt 0.037228 0.966290
vt 0.039977 0.966977
vt 0.037228 0.966977
vt 0.036540 0.964227
vt 0.036540 0.961478
vt 0.042039 0.961478
vt 0.042727 0.964227
vt 0.042039 0.964227
vt 0.040665 0.961478
vt 0.039977 0.964227
vt 0.041352 0.964227
vt 0.040665 0.964227
vt 0.041352 0.961478
vt 0.035165 0.961478
vt 0.034478 0.964227
vt 0.034478 0.961478
vt 0.035853 0.961478
vt 0.035165 0.964227
vt 0.035853 0.964227
vt 0.037228 0.964915
vt 0.039977 0.965602
vt 0.037228 0.965602
vt 0.039977 0.966290
vt 0.037228 0.959415
vt 0.039977 0.959415
vt 0.037228 0.960103
vt 0.039977 0.960103
vt 0.039977 0.958728
vt 0.042024 0.961107
vt 0.039977 0.961478
vt 0.039977 0.966977
vt 0.037228 0.961478
vt 0.039769 0.956597
vt 0.039769 0.961107
vt 0.039769 0.965617
vt 0.037514 0.963362
vt 0.042727 0.964227
vt 0.039977 0.955978
vt 0.039977 0.960790
vt 0.039977 0.966977
vt 0.042727 0.964227
vt 0.039977 0.964915
vt 0.039977 0.959415
vt 0.039977 0.955978
vt 0.042727 0.961478
vt 0.039977 0.964915
vn -0.0228 0.9997 -0.0047
vn -0.0222 0.9997 -0.0052
vn -0.0161 0.9998 -0.0118
vn 0.0153 -0.0573 -0.9982
vn 0.0214 -0.1217 -0.9923
vn -0.0066 -0.0101 -0.9999
vn 0.0190 0.0025 0.9998
vn 0.0216 -0.0131 0.9997
vn 0.0202 -0.0149 0.9997
vn -0.0751 -0.9970 0.0162
vn -0.0705 -0.9973 0.0214
vn -0.0309 -0.9974 0.0651
vn -0.9994 0.0348 0.0046
vn -0.9995 0.0237 -0.0214
vn -0.9986 0.0481 0.0210
vn 0.9947 -0.0411 -0.0939
vn 0.9968 -0.0517 -0.0612
vn 0.9921 -0.0266 -0.1228
vn 0.1128 0.0367 -0.9929
vn 0.0794 0.0481 -0.9957
vn 0.0660 0.0430 -0.9969
vn -0.0067 -0.0495 -0.9987
vn 0.1016 0.0311 -0.9943
vn 0.9980 -0.0324 -0.0538
vn 0.9996 -0.0282 -0.0101
vn 0.9997 -0.0248 0.0016
vn 0.9971 -0.0362 -0.0675
vn -0.9994 0.0339 -0.0080
vn -0.9993 0.0372 0.0105
vn -0.9994 0.0316 -0.0139
vn -0.9992 0.0380 0.0152
vn -0.0026 -0.0026 1.0000
vn 0.0300 -0.0053 0.9995
vn 0.0422 -0.0111 0.9990
vn -0.0044 -0.0027 1.0000
vn 0.0027 1.0000 0.0018
vn 0.0026 1.0000 0.0016
vn 0.0043 1.0000 0.0035
vn -0.0402 -0.2949 0.9547
vn -0.0445 -0.1792 0.9828
vn -0.0712 -0.1245 0.9897
vn 0.0001 -0.9996 -0.0285
vn 0.0038 -0.9997 -0.0248
vn 0.0328 -0.9995 0.0043
vn -0.9854 -0.0956 0.1407
vn -0.9799 -0.1807 0.0851
vn -0.9798 -0.0305 0.1978
vn 0.9830 0.1765 -0.0513
vn 0.9921 0.0880 -0.0891
vn 0.9902 0.0508 -0.1301
vn 0.0612 0.0436 -0.9972
vn 0.0244 0.0545 -0.9982
vn 0.0068 0.0478 -0.9988
vn 0.0830 0.0408 -0.9957
vn 0.9853 -0.0279 -0.1685
vn 0.9973 -0.0085 -0.0729
vn 0.9987 -0.0027 -0.0516
vn 0.9837 -0.0298 -0.1775
vn -0.9941 0.0080 0.1084
vn -0.9973 0.0345 0.0644
vn -0.9977 0.0372 0.0558
vn -0.9942 0.0044 0.1077
vn 0.0424 0.0676 0.9968
vn -0.0486 0.0128 0.9987
vn 0.0777 0.0804 0.9937
vn -0.0662 0.0040 0.9978
vn -0.0258 -0.0726 -0.9970
vn -0.0258 -0.0582 -0.9980
vn -0.9770 -0.0561 0.2057
vn -0.9919 -0.1273 0.0031
vn -0.9392 -0.0041 0.3433
vn 0.0076 0.0625 -0.9980
vn 0.0100 0.1042 -0.9945
vn 0.0080 0.1114 -0.9937
vn 0.9453 0.2055 0.2535
vn 0.9844 0.1414 0.1050
vn 0.9950 0.0991 0.0102
vn -0.0148 -0.0774 0.9969
vn 0.0274 -0.2235 0.9743
vn -0.0191 -0.0779 0.9968
vn 0.0524 -0.9753 0.2148
vn 0.0866 -0.9700 0.2273
vn 0.0920 -0.9747 0.2039
vn -0.0627 0.9895 0.1304
vn -0.0950 0.9207 0.3786
vn -0.0956 0.9240 0.3703
vn -0.0715 0.9695 0.2343
vn -0.0472 0.9871 0.1527
vn -0.0465 0.9882 0.1458
vn -0.0983 0.9906 -0.0947
vn -0.0684 0.9653 0.2521
vn -0.0998 0.9873 -0.1238
vn 0.0958 -0.9754 -0.1984
vn 0.1032 -0.9904 -0.0923
vn 0.1036 -0.9908 -0.0868
vn 0.0808 -0.9759 -0.2028
vn 0.0954 -0.9752 -0.1998
vn 0.0772 -0.9724 -0.2202
vn 0.0000 -0.0187 0.9998
vn 0.0134 -0.0603 0.9981
vn -0.0013 -0.0129 0.9999
vn 0.0094 0.1002 0.9949
vn 0.0088 0.0989 0.9951
vn 0.0048 -0.0198 -0.9998
vn -0.0198 0.0770 -0.9968
vn 0.0031 -0.0348 -0.9994
vn -0.0293 0.0904 -0.9955
vn -0.0296 0.0937 -0.9952
vn -0.9976 0.0675 0.0182
vn -0.9945 0.0862 0.0599
vn -0.9984 0.0570 -0.0053
vn 0.0095 0.0779 -0.9969
vn -0.0028 0.0478 -0.9989
vn 0.0098 0.0785 -0.9969
vn 0.9989 -0.0011 -0.0463
vn 0.9966 -0.0277 -0.0782
vn 0.9901 -0.0658 -0.1237
vn 0.0058 -0.0515 0.9987
vn 0.0257 0.0050 0.9997
vn 0.0271 0.0135 0.9995
vn 0.0052 -0.9788 0.2048
vn 0.0307 -0.9969 0.0722
vn 0.0298 -0.9984 0.0473
vn -0.0470 0.9158 -0.3989
vn -0.0040 0.9978 -0.0662
vn -0.0464 0.9060 -0.4208
vn -0.0093 0.9484 -0.3171
vn 0.0183 0.9135 -0.4064
vn 0.0194 0.9099 -0.4143
vn -0.0444 0.9816 -0.1856
vn -0.0105 0.9474 -0.3200
vn -0.0443 0.9846 -0.1693
vn 0.0208 -0.9917 0.1270
vn 0.0388 -0.9969 0.0689
vn 0.0384 -0.9971 0.0653
vn 0.0297 -0.9363 0.3499
vn 0.0187 -0.9896 0.1430
vn 0.0290 -0.9292 0.3683
vn -0.0170 0.0104 0.9998
vn 0.0087 -0.1077 0.9941
vn -0.0219 0.0327 0.9992
vn 0.0117 -0.0348 0.9993
vn 0.0124 -0.0295 0.9995
vn 0.0051 -0.0540 0.9985
vn -0.0147 0.0746 -0.9971
vn -0.0443 -0.0049 -0.9990
vn -0.0129 0.0850 -0.9963
vn -0.0464 -0.0055 -0.9989
vn -0.0194 0.0560 -0.9982
vn -0.0178 0.0612 -0.9980
vn -0.0287 0.9996 0.0017
vn 0.0875 -0.2047 -0.9749
vn 0.0123 0.0089 0.9999
vn -0.1172 -0.9926 -0.0306
vn -0.9985 -0.0053 -0.0540
vn 0.9964 -0.0824 -0.0191
vn 0.0012 1.0000 -0.0000
vn 0.0112 -0.3472 0.9377
vn -0.0307 -0.9978 -0.0594
vn -0.9657 -0.2595 0.0010
vn 0.9747 0.2236 0.0049
vn -0.0261 -0.0729 -0.9970
vn -0.9833 -0.1581 -0.0903
vn 0.0095 0.0572 -0.9983
vn 0.8935 0.2540 0.3703
vn 0.0326 -0.2413 0.9699
vn 0.0522 -0.9756 0.2132
vn -0.0609 0.9916 0.1141
vn 0.0134 -0.0750 0.9971
vn -0.0186 0.0850 -0.9962
vn -0.9913 0.0985 0.0876
vn -0.0038 0.0434 -0.9991
vn 0.9994 0.0359 -0.0020
vn 0.0065 -0.9763 0.2164
vn -0.0008 0.9992 -0.0388
vn 0.0097 -0.1246 0.9922
s 1
f 5/1/1 3/2/2 1/3/3
f 31/4/4 17/5/5 25/6/6
f 3/7/7 12/8/8 13/9/9
f 2/10/10 8/11/11 6/12/12
f 12/8/13 5/13/14 15/14/15
f 9/15/16 3/16/17 13/17/18
f 16/18/19 2/10/20 6/19/21
f 15/20/22 10/21/23 16/18/19
f 10/22/24 4/23/25 2/24/26
f 9/15/16 14/25/27 10/22/24
f 8/26/28 16/27/29 6/12/30
f 11/28/31 15/14/15 16/27/29
f 14/29/32 8/26/33 4/30/34
f 13/9/9 11/28/35 14/29/32
f 17/31/36 23/32/37 19/33/38
f 19/34/39 28/35/40 29/36/41
f 18/37/42 24/38/43 22/39/44
f 28/35/45 21/40/46 31/41/47
f 17/42/48 29/43/49 25/44/50
f 32/45/51 18/37/52 22/46/53
f 32/45/51 25/6/6 26/47/54
f 26/48/55 20/49/56 18/50/57
f 25/44/50 30/51/58 26/48/55
f 27/52/59 22/39/60 24/53/61
f 27/52/59 31/41/47 32/54/62
f 20/55/63 27/52/64 24/53/65
f 30/56/66 28/35/40 27/52/64
f 5/57/67 9/58/68 15/20/22
f 33/59/69 36/60/70 35/61/71
f 41/62/72 40/63/73 39/64/74
f 40/63/75 37/65/76 39/64/77
f 52/66/78 33/67/79 47/68/80
f 39/64/81 49/69/82 41/70/83
f 36/71/84 52/72/85 44/73/86
f 46/74/87 38/75/88 40/63/89
f 46/74/87 51/76/90 50/77/91
f 44/73/86 51/76/90 45/78/92
f 43/79/93 33/80/94 35/81/95
f 43/79/93 48/82/96 47/83/97
f 41/70/83 48/82/96 42/84/98
f 38/75/99 49/85/100 37/65/101
f 49/85/100 51/86/102 48/87/103
f 48/87/103 52/66/78 47/68/80
f 36/60/104 43/88/105 35/61/106
f 43/88/105 45/89/107 42/90/108
f 45/89/107 41/62/72 42/90/108
f 53/91/109 56/92/110 55/93/111
f 66/94/112 59/95/113 61/96/114
f 60/97/115 57/98/116 59/95/117
f 67/99/118 54/100/119 53/101/120
f 59/95/121 69/102/122 61/103/123
f 64/104/124 54/105/125 72/106/126
f 66/107/127 58/108/128 60/97/129
f 66/107/127 71/109/130 70/110/131
f 64/104/124 71/109/130 65/111/132
f 63/112/133 53/113/134 55/114/135
f 62/115/136 67/116/137 63/112/133
f 62/115/136 69/102/122 68/117/138
f 58/108/139 69/118/140 57/98/141
f 69/118/140 71/119/142 68/120/143
f 68/120/143 72/121/144 67/99/118
f 56/92/145 63/122/146 55/93/147
f 64/123/148 62/124/149 63/122/146
f 65/125/150 61/96/114 62/124/149
f 5/1/1 7/126/151 3/2/2
f 31/4/4 21/127/152 17/5/5
f 3/7/7 7/128/153 12/8/8
f 2/10/10 4/129/154 8/11/11
f 12/8/13 7/128/155 5/13/14
f 9/15/16 1/130/156 3/16/17
f 16/18/19 10/21/23 2/10/20
f 15/20/22 9/58/68 10/21/23
f 10/22/24 14/25/27 4/23/25
f 9/15/16 13/17/18 14/25/27
f 8/26/28 11/28/31 16/27/29
f 11/28/31 12/8/13 15/14/15
f 14/29/32 11/28/35 8/26/33
f 13/9/9 12/8/8 11/28/35
f 17/31/36 21/131/157 23/32/37
f 19/34/39 23/132/158 28/35/40
f 18/37/42 20/133/159 24/38/43
f 28/35/45 23/132/160 21/40/46
f 17/42/48 19/134/161 29/43/49
f 32/45/51 26/47/54 18/37/52
f 32/45/51 31/4/4 25/6/6
f 26/48/55 30/51/58 20/49/56
f 25/44/50 29/43/49 30/51/58
f 27/52/59 32/54/62 22/39/60
f 27/52/59 28/35/45 31/41/47
f 20/55/63 30/56/66 27/52/64
f 30/56/66 29/36/41 28/35/40
f 5/57/67 1/135/162 9/58/68
f 33/59/69 34/136/163 36/60/70
f 41/62/72 46/137/164 40/63/73
f 40/63/75 38/75/165 37/65/76
f 52/66/78 34/138/166 33/67/79
f 39/64/81 37/65/167 49/69/82
f 36/71/84 34/139/168 52/72/85
f 46/74/87 50/77/91 38/75/88
f 46/74/87 45/78/92 51/76/90
f 44/73/86 52/72/85 51/76/90
f 43/79/93 47/83/97 33/80/94
f 43/79/93 42/84/98 48/82/96
f 41/70/83 49/69/82 48/82/96
f 38/75/99 50/140/169 49/85/100
f 49/85/100 50/140/169 51/86/102
f 48/87/103 51/86/102 52/66/78
f 36/60/104 44/141/170 43/88/105
f 43/88/105 44/141/170 45/89/107
f 45/89/107 46/137/164 41/62/72
f 53/91/109 54/142/171 56/92/110
f 66/94/112 60/97/172 59/95/113
f 60/97/115 58/108/173 57/98/116
f 67/99/118 72/121/144 54/100/119
f 59/95/121 57/98/174 69/102/122
f 64/104/124 56/143/175 54/105/125
f 66/107/127 70/110/131 58/108/128
f 66/107/127 65/111/132 71/109/130
f 64/104/124 72/106/126 71/109/130
f 63/112/133 67/116/137 53/113/134
f 62/115/136 68/117/138 67/116/137
f 62/115/136 61/103/123 69/102/122
f 58/108/139 70/144/176 69/118/140
f 69/118/140 70/144/176 71/119/142
f 68/120/143 71/119/142 72/121/144
f 56/92/145 64/123/148 63/122/146
f 64/123/148 65/125/150 62/124/149
f 65/125/150 66/94/112 61/96/114
