# Blender v2.80 (sub 75) OBJ File: ''
# www.blender.org
o Fence.006_Cube.008
v 0.521932 0.232944 -0.018139
v 0.520072 0.003796 -0.016961
v 0.521932 0.233411 0.020291
v 0.520072 0.002728 0.017981
v 0.481932 0.232322 -0.017062
v 0.480072 0.004865 -0.019566
v 0.481932 0.232199 0.020823
v 0.480072 0.007446 0.019739
v 0.520356 0.199432 -0.014581
v 0.520072 0.100287 -0.010500
v 0.480072 0.105493 0.018535
v 0.480619 0.201629 0.021201
v 0.520325 0.201330 0.020108
v 0.520072 0.101757 0.018900
v 0.480652 0.199012 -0.013562
v 0.480072 0.099989 -0.015269
v 0.021705 0.233523 -0.014792
v 0.020072 0.001930 -0.019323
v 0.021705 0.233523 0.019693
v 0.020072 -0.000276 0.015427
v -0.018295 0.233523 -0.017441
v -0.019928 0.000477 -0.019660
v -0.018295 0.233523 0.022711
v -0.019928 0.000711 0.018450
v 0.019935 0.199883 -0.013235
v 0.020072 0.100820 -0.011700
v -0.019928 0.099897 0.010237
v -0.019933 0.199562 0.011526
v 0.019573 0.199696 0.012632
v 0.020072 0.102350 0.012846
v -0.020293 0.199364 -0.011021
v -0.019928 0.099894 -0.014890
v 0.016360 0.181587 0.000510
v 0.016353 0.205087 0.006011
v 0.016360 0.180863 -0.008619
v 0.016103 0.205810 -0.008424
v 0.488157 0.172423 0.001900
v 0.489173 0.194072 0.002152
v 0.488157 0.170482 -0.010806
v 0.488960 0.194937 -0.008070
v 0.370208 0.174176 -0.012728
v 0.252259 0.180412 -0.016245
v 0.134309 0.179394 -0.007706
v 0.134915 0.203426 -0.006815
v 0.252856 0.197895 -0.013790
v 0.370805 0.199506 -0.011158
v 0.134309 0.180242 0.000866
v 0.252259 0.177860 0.005026
v 0.370208 0.177916 0.001430
v 0.370805 0.199108 0.003063
v 0.252856 0.201823 0.002168
v 0.134907 0.201817 0.001662
v 0.016275 0.076998 0.006694
v 0.017830 0.101682 0.006298
v 0.016275 0.076019 -0.006270
v 0.017830 0.100497 -0.004164
v 0.487285 0.056197 0.003794
v 0.488840 0.081034 0.002959
v 0.487285 0.052583 -0.012405
v 0.488840 0.074448 -0.011459
v 0.369533 0.062737 -0.012749
v 0.251780 0.062532 -0.014774
v 0.134027 0.072159 -0.007412
v 0.135582 0.093646 -0.008049
v 0.253335 0.093996 -0.013493
v 0.371088 0.085963 -0.010890
v 0.134027 0.074992 0.003387
v 0.251780 0.070964 0.004288
v 0.369533 0.063581 0.001196
v 0.371088 0.091649 0.004673
v 0.253335 0.096446 0.004476
v 0.135582 0.099830 0.004439
vt 0.039977 0.955978
vt 0.037228 0.958728
vt 0.037228 0.955978
vt 0.042024 0.961107
vt 0.040897 0.963362
vt 0.040897 0.961107
vt 0.038602 0.958728
vt 0.039977 0.961478
vt 0.038602 0.961478
vt 0.039977 0.964227
vt 0.037228 0.966977
vt 0.037228 0.964227
vt 0.038602 0.964227
vt 0.035853 0.961478
vt 0.037228 0.964227
vt 0.035853 0.964227
vt 0.039977 0.961478
vt 0.040665 0.964227
vt 0.041352 0.961478
vt 0.040665 0.961478
vt 0.035165 0.961478
vt 0.034478 0.964227
vt 0.034478 0.961478
vt 0.035165 0.964227
vt 0.037228 0.961478
vt 0.037915 0.964227
vt 0.037915 0.961478
vt 0.037915 0.958728
vt 0.037228 0.958728
vt 0.039769 0.956597
vt 0.037514 0.958852
vt 0.037514 0.956597
vt 0.038642 0.958852
vt 0.039769 0.961107
vt 0.038642 0.961107
vt 0.037514 0.963362
vt 0.039769 0.965617
vt 0.037514 0.965617
vt 0.039769 0.963362
vt 0.038642 0.963362
vt 0.037514 0.961107
vt 0.036387 0.963362
vt 0.036387 0.961107
vt 0.040333 0.961107
vt 0.039769 0.963362
vt 0.039769 0.961107
vt 0.040333 0.963362
vt 0.035823 0.961107
vt 0.035259 0.963362
vt 0.035259 0.961107
vt 0.035823 0.963362
vt 0.038078 0.961107
vt 0.037514 0.961107
vt 0.038078 0.963362
vt 0.037514 0.958852
vt 0.038078 0.958852
vt 0.042727 0.961478
vt 0.041352 0.964227
vt 0.037228 0.955978
vt 0.039977 0.958728
vt 0.037228 0.958728
vt 0.037228 0.960790
vt 0.039977 0.961478
vt 0.037228 0.961478
vt 0.037228 0.964227
vt 0.039977 0.966290
vt 0.037228 0.966977
vt 0.037228 0.966290
vt 0.036540 0.964227
vt 0.036540 0.961478
vt 0.042727 0.961478
vt 0.042039 0.964227
vt 0.042039 0.961478
vt 0.040665 0.964227
vt 0.039977 0.964227
vt 0.040665 0.961478
vt 0.041352 0.964227
vt 0.041352 0.961478
vt 0.035165 0.961478
vt 0.034478 0.964227
vt 0.034478 0.961478
vt 0.035853 0.964227
vt 0.035165 0.964227
vt 0.035853 0.961478
vt 0.037228 0.964915
vt 0.039977 0.965602
vt 0.037228 0.965602
vt 0.039977 0.959415
vt 0.037228 0.959415
vt 0.037228 0.960103
vt 0.039977 0.960103
vt 0.037228 0.955978
vt 0.039977 0.958728
vt 0.037228 0.958728
vt 0.037228 0.960790
vt 0.039977 0.961478
vt 0.037228 0.961478
vt 0.037228 0.964227
vt 0.037228 0.966290
vt 0.039977 0.966977
vt 0.037228 0.966977
vt 0.036540 0.964227
vt 0.036540 0.961478
vt 0.042727 0.961478
vt 0.042039 0.964227
vt 0.042039 0.961478
vt 0.040665 0.961478
vt 0.039977 0.964227
vt 0.041352 0.961478
vt 0.040665 0.964227
vt 0.041352 0.964227
vt 0.034478 0.961478
vt 0.035165 0.964227
vt 0.034478 0.964227
vt 0.035165 0.961478
vt 0.035853 0.964227
vt 0.035853 0.961478
vt 0.037228 0.964915
vt 0.039977 0.965602
vt 0.037228 0.965602
vt 0.039977 0.966290
vt 0.037228 0.959415
vt 0.039977 0.959415
vt 0.037228 0.960103
vt 0.039977 0.960103
vt 0.039977 0.958728
vt 0.042024 0.963362
vt 0.039977 0.958728
vt 0.039977 0.966977
vt 0.039977 0.964227
vt 0.037228 0.961478
vt 0.039769 0.958852
vt 0.039769 0.958852
vt 0.037514 0.963362
vt 0.042727 0.964227
vt 0.039977 0.955978
vt 0.039977 0.960790
vt 0.039977 0.966977
vt 0.042727 0.964227
vt 0.039977 0.964915
vt 0.039977 0.955978
vt 0.039977 0.960790
vt 0.042727 0.964227
vt 0.039977 0.964915
vn -0.0232 0.9997 -0.0042
vn -0.0228 0.9997 -0.0047
vn -0.0159 0.9998 -0.0121
vn 0.0005 -0.1236 -0.9923
vn -0.0202 -0.0640 -0.9977
vn -0.0367 -0.0897 -0.9953
vn 0.0186 -0.0114 0.9998
vn 0.0215 0.0036 0.9998
vn 0.0275 -0.0086 0.9996
vn -0.0755 -0.9970 0.0168
vn -0.0711 -0.9972 0.0217
vn -0.0309 -0.9974 0.0655
vn -0.9992 0.0407 -0.0021
vn -0.9997 0.0227 -0.0015
vn -0.9997 0.0253 -0.0029
vn 0.9997 -0.0257 0.0014
vn 0.9988 -0.0485 0.0021
vn 0.9996 -0.0273 0.0024
vn 0.0795 0.0612 -0.9950
vn 0.0943 0.0263 -0.9952
vn 0.0666 0.0667 -0.9955
vn -0.0069 -0.0645 -0.9979
vn 0.1181 0.0307 -0.9925
vn 1.0000 -0.0014 0.0001
vn 1.0000 0.0000 0.0000
vn 1.0000 -0.0015 0.0002
vn -1.0000 0.0000 0.0000
vn -1.0000 0.0026 -0.0004
vn -1.0000 0.0032 -0.0006
vn -0.0026 -0.0019 1.0000
vn 0.0307 -0.0042 0.9995
vn 0.0428 -0.0093 0.9990
vn -0.0045 -0.0026 1.0000
vn 0.0000 1.0000 0.0000
vn 0.0005 -0.1313 0.9913
vn 0.0199 -0.2650 0.9640
vn -0.0318 -0.1555 0.9873
vn 0.0036 -0.9997 -0.0256
vn 0.0073 -0.9995 -0.0298
vn -0.0242 -0.9997 0.0061
vn -0.9995 0.0297 0.0111
vn -0.9986 0.0531 0.0058
vn -0.9994 0.0314 0.0145
vn 0.9983 -0.0583 0.0057
vn 0.9996 -0.0279 0.0102
vn 0.9996 -0.0244 0.0127
vn 0.0693 0.0546 -0.9961
vn 0.0238 0.0549 -0.9982
vn 0.0067 0.0479 -0.9988
vn 0.0616 0.0508 -0.9968
vn 1.0000 0.0006 -0.0000
vn 1.0000 0.0010 0.0011
vn -1.0000 -0.0016 0.0011
vn -1.0000 -0.0018 0.0000
vn 0.0420 0.0684 0.9968
vn -0.0481 0.0138 0.9987
vn 0.0771 0.0823 0.9936
vn -0.0610 0.0072 0.9981
vn -0.0247 -0.1039 -0.9943
vn -0.0250 -0.0733 -0.9970
vn -0.9999 -0.0084 0.0059
vn -0.9999 -0.0057 0.0133
vn -0.9999 -0.0103 0.0008
vn 0.0251 0.0682 -0.9974
vn 0.0208 0.1039 -0.9944
vn 0.0197 0.1105 -0.9937
vn 0.9990 -0.0422 -0.0149
vn 0.9993 -0.0366 -0.0023
vn 0.9994 -0.0334 0.0051
vn -0.0157 -0.0387 0.9991
vn 0.0257 -0.2064 0.9781
vn -0.0196 -0.0363 0.9991
vn -0.0457 -0.9862 0.1591
vn -0.0442 -0.9719 0.2312
vn -0.0466 -0.9658 0.2551
vn 0.0288 0.9980 0.0560
vn 0.0087 0.9834 0.1813
vn 0.0095 0.9856 0.1688
vn 0.0426 0.9959 0.0793
vn 0.0305 0.9991 0.0295
vn 0.0430 0.9956 0.0834
vn 0.0289 0.9995 0.0162
vn 0.0122 0.9755 -0.2197
vn 0.0115 0.9710 -0.2390
vn -0.0165 -0.9962 0.0859
vn -0.0130 -0.9967 0.0800
vn -0.0130 -0.9968 0.0791
vn -0.0022 -0.9935 -0.1140
vn -0.0177 -0.9950 0.0984
vn -0.0039 -0.9945 -0.1042
vn -0.0035 -0.0188 0.9998
vn -0.0005 -0.0607 0.9982
vn -0.0045 -0.0114 0.9999
vn 0.0109 0.1071 0.9942
vn 0.0110 0.1092 0.9940
vn 0.0130 0.0116 -0.9998
vn -0.0306 0.0407 -0.9987
vn -0.0316 0.0378 -0.9988
vn -0.0091 0.1329 -0.9911
vn -0.0081 0.1343 -0.9909
vn -0.9980 0.0635 -0.0054
vn -0.9980 0.0631 -0.0064
vn -0.9980 0.0638 -0.0048
vn 0.0147 0.0736 -0.9972
vn 0.0062 0.0473 -0.9989
vn 0.0066 0.0428 -0.9991
vn 0.9976 -0.0652 0.0237
vn 0.9975 -0.0678 0.0205
vn 0.9973 -0.0716 0.0160
vn 0.0042 -0.0387 0.9992
vn 0.0266 0.0068 0.9996
vn 0.0283 0.0142 0.9995
vn -0.0674 -0.9763 0.2056
vn -0.0443 -0.9953 0.0864
vn -0.0425 -0.9973 0.0603
vn 0.0156 0.9904 -0.1372
vn 0.0311 0.8999 -0.4349
vn 0.0298 0.9026 -0.4295
vn 0.0758 0.9354 -0.3453
vn 0.0860 0.9090 -0.4078
vn 0.0866 0.9062 -0.4139
vn 0.0174 0.9893 -0.1446
vn 0.0739 0.9402 -0.3324
vn 0.0169 0.9890 -0.1469
vn -0.0157 -0.9962 0.0860
vn -0.0316 -0.9684 0.2476
vn -0.0149 -0.9970 0.0753
vn -0.0330 -0.9645 0.2621
vn -0.0476 -0.9154 0.3996
vn -0.0463 -0.9189 0.3917
vn -0.0165 0.0114 0.9998
vn -0.0010 -0.1048 0.9945
vn -0.0199 0.0348 0.9992
vn 0.0104 -0.0167 0.9998
vn 0.0119 -0.0104 0.9999
vn 0.0033 -0.0401 0.9992
vn -0.0100 0.0732 -0.9973
vn -0.0475 -0.0187 -0.9987
vn -0.0068 0.0861 -0.9963
vn -0.0484 -0.0204 -0.9986
vn -0.0158 0.0374 -0.9992
vn -0.0136 0.0438 -0.9989
vn -0.0303 0.9995 0.0033
vn 0.0660 -0.0496 -0.9966
vn 0.0135 -0.0064 0.9999
vn -0.1184 -0.9925 -0.0303
vn -0.9993 0.0384 0.0001
vn 0.9989 -0.0469 0.0006
vn 0.0736 -0.2082 0.9753
vn 0.0368 -0.9973 -0.0633
vn -0.9988 0.0482 0.0000
vn 0.9980 -0.0629 0.0000
vn -0.0252 -0.1044 -0.9942
vn -0.9998 -0.0043 0.0171
vn 0.0250 0.0613 -0.9978
vn 0.9986 -0.0466 -0.0248
vn 0.0294 -0.2278 0.9733
vn -0.0466 -0.9875 0.1509
vn 0.0293 0.9983 0.0495
vn -0.0025 -0.0768 0.9970
vn 0.0137 0.0080 -0.9999
vn -0.9980 0.0628 -0.0071
vn 0.0153 0.0788 -0.9968
vn 0.9977 -0.0615 0.0281
vn -0.0659 -0.9739 0.2173
vn 0.0138 0.9936 -0.1124
vn -0.0017 -0.1228 0.9924
s 1
f 5/1/1 3/2/2 1/3/3
f 21/4/4 25/5/5 31/6/6
f 13/7/7 7/8/8 12/9/9
f 2/10/10 8/11/11 6/12/12
f 7/8/13 15/13/14 12/9/15
f 9/14/16 3/15/17 13/16/18
f 6/17/19 10/18/20 2/10/21
f 15/19/22 10/18/20 16/20/23
f 10/21/24 4/22/25 2/23/25
f 9/14/16 14/24/26 10/21/24
f 8/25/27 16/26/28 6/12/27
f 11/27/29 15/13/14 16/26/28
f 14/28/30 8/25/31 4/29/32
f 13/7/7 11/27/33 14/28/30
f 21/30/34 19/31/34 17/32/34
f 29/33/35 23/34/36 28/35/37
f 22/36/38 20/37/39 24/38/40
f 28/35/41 21/39/42 31/40/43
f 17/41/44 29/42/45 25/43/46
f 32/44/47 18/45/48 22/46/49
f 31/6/6 26/47/50 32/44/47
f 26/48/51 20/49/25 18/50/25
f 25/43/46 30/51/52 26/48/51
f 27/52/53 22/36/27 24/53/27
f 27/52/53 31/40/43 32/54/54
f 20/55/55 27/52/56 24/53/57
f 30/56/58 28/35/37 27/52/56
f 5/57/59 9/58/60 15/19/22
f 33/59/61 36/60/62 35/61/63
f 41/62/64 40/63/65 39/64/66
f 40/63/67 37/65/68 39/64/69
f 52/66/70 33/67/71 47/68/72
f 39/64/73 49/69/74 41/70/75
f 36/71/76 52/72/77 44/73/78
f 40/63/79 50/74/80 38/75/81
f 46/76/82 51/77/83 50/74/80
f 44/73/78 51/77/83 45/78/84
f 43/79/85 33/80/86 35/81/87
f 43/79/85 48/82/88 47/83/89
f 42/84/90 49/69/74 48/82/88
f 38/75/91 49/85/92 37/65/93
f 49/85/92 51/86/94 48/87/95
f 48/87/95 52/66/70 47/68/72
f 35/61/96 44/88/97 43/89/98
f 44/88/97 42/90/99 43/89/98
f 45/91/100 41/62/64 42/90/99
f 53/92/101 56/93/102 55/94/103
f 61/95/104 60/96/105 59/97/106
f 60/96/107 57/98/108 59/97/109
f 67/99/110 54/100/111 53/101/112
f 59/97/113 69/102/114 61/103/115
f 56/104/116 72/105/117 64/106/118
f 66/107/119 58/108/120 60/96/121
f 65/109/122 70/110/123 66/107/119
f 64/106/118 71/111/124 65/109/122
f 55/112/125 67/113/126 53/114/127
f 63/115/128 68/116/129 67/113/126
f 62/117/130 69/102/114 68/116/129
f 58/108/131 69/118/132 57/98/133
f 69/118/132 71/119/134 68/120/135
f 68/120/135 72/121/136 67/99/110
f 56/93/137 63/122/138 55/94/139
f 64/123/140 62/124/141 63/122/138
f 65/125/142 61/95/104 62/124/141
f 5/1/1 7/126/143 3/2/2
f 21/4/4 17/127/144 25/5/5
f 13/7/7 3/128/145 7/8/8
f 2/10/10 4/129/146 8/11/11
f 7/8/13 5/130/147 15/13/14
f 9/14/16 1/131/148 3/15/17
f 6/17/19 16/20/23 10/18/20
f 15/19/22 9/58/60 10/18/20
f 10/21/24 14/24/26 4/22/25
f 9/14/16 13/16/18 14/24/26
f 8/25/27 11/27/29 16/26/28
f 11/27/29 12/9/15 15/13/14
f 14/28/30 11/27/33 8/25/31
f 13/7/7 12/9/9 11/27/33
f 21/30/34 23/132/34 19/31/34
f 29/33/35 19/133/149 23/34/36
f 22/36/38 18/45/150 20/37/39
f 28/35/41 23/34/151 21/39/42
f 17/41/44 19/134/152 29/42/45
f 32/44/47 26/47/50 18/45/48
f 31/6/6 25/5/5 26/47/50
f 26/48/51 30/51/52 20/49/25
f 25/43/46 29/42/45 30/51/52
f 27/52/53 32/54/54 22/36/27
f 27/52/53 28/35/41 31/40/43
f 20/55/55 30/56/58 27/52/56
f 30/56/58 29/33/35 28/35/37
f 5/57/59 1/135/153 9/58/60
f 33/59/61 34/136/154 36/60/62
f 41/62/64 46/137/155 40/63/65
f 40/63/67 38/75/156 37/65/68
f 52/66/70 34/138/157 33/67/71
f 39/64/73 37/65/158 49/69/74
f 36/71/76 34/139/159 52/72/77
f 40/63/79 46/76/82 50/74/80
f 46/76/82 45/78/84 51/77/83
f 44/73/78 52/72/77 51/77/83
f 43/79/85 47/83/89 33/80/86
f 43/79/85 42/84/90 48/82/88
f 42/84/90 41/70/75 49/69/74
f 38/75/91 50/140/160 49/85/92
f 49/85/92 50/140/160 51/86/94
f 48/87/95 51/86/94 52/66/70
f 35/61/96 36/60/161 44/88/97
f 44/88/97 45/91/100 42/90/99
f 45/91/100 46/137/155 41/62/64
f 53/92/101 54/141/162 56/93/102
f 61/95/104 66/142/163 60/96/105
f 60/96/107 58/108/164 57/98/108
f 67/99/110 72/121/136 54/100/111
f 59/97/113 57/98/165 69/102/114
f 56/104/116 54/143/166 72/105/117
f 66/107/119 70/110/123 58/108/120
f 65/109/122 71/111/124 70/110/123
f 64/106/118 72/105/117 71/111/124
f 55/112/125 63/115/128 67/113/126
f 63/115/128 62/117/130 68/116/129
f 62/117/130 61/103/115 69/102/114
f 58/108/131 70/144/167 69/118/132
f 69/118/132 70/144/167 71/119/134
f 68/120/135 71/119/134 72/121/136
f 56/93/137 64/123/140 63/122/138
f 64/123/140 65/125/142 62/124/141
f 65/125/142 66/142/163 61/95/104
