# Blender v2.80 (sub 75) OBJ File: ''
# www.blender.org
o 2_Bar_Fence.000_Cube.009
v 0.022007 0.152660 0.000527
v 0.017535 0.176937 0.006718
v 0.019073 0.153056 -0.007496
v 0.018633 0.178744 -0.008390
v 0.494308 0.195292 0.001900
v 0.488478 0.215435 0.002152
v 0.494712 0.192537 -0.010806
v 0.492235 0.217120 -0.008070
v 0.372187 0.185258 -0.012611
v 0.253220 0.178511 -0.013096
v 0.136865 0.165382 -0.007562
v 0.134681 0.188700 -0.005532
v 0.251847 0.196054 -0.011404
v 0.371882 0.211902 -0.011086
v 0.136924 0.163219 0.003022
v 0.253506 0.174066 0.006632
v 0.374712 0.188838 0.001657
v 0.373283 0.208287 0.003140
v 0.251405 0.197943 0.004019
v 0.134585 0.184370 0.004631
v 0.017443 0.059733 0.006694
v 0.019838 0.084179 0.006298
v 0.017463 0.058885 -0.006270
v 0.018872 0.083771 -0.004164
v 0.492069 0.072603 0.003794
v 0.491175 0.097488 0.002959
v 0.489806 0.068998 -0.012405
v 0.491382 0.090918 -0.011459
v 0.372127 0.070579 -0.012749
v 0.252956 0.061481 -0.014774
v 0.135130 0.063337 -0.007412
v 0.136655 0.083722 -0.007713
v 0.252316 0.092409 -0.012904
v 0.372263 0.093714 -0.010890
v 0.136845 0.064779 0.003387
v 0.252369 0.069019 0.004288
v 0.371430 0.071219 0.001196
v 0.372428 0.098973 0.004673
v 0.252146 0.095482 0.005020
v 0.136233 0.089503 0.004779
vt 0.037228 0.955978
vt 0.039977 0.958728
vt 0.037228 0.958728
vt 0.037228 0.960790
vt 0.039977 0.961478
vt 0.037228 0.961478
vt 0.037228 0.964227
vt 0.039977 0.966290
vt 0.037228 0.966977
vt 0.037228 0.966290
vt 0.036540 0.964227
vt 0.036540 0.961478
vt 0.042727 0.961478
vt 0.042039 0.964227
vt 0.042039 0.961478
vt 0.040665 0.961478
vt 0.039977 0.964227
vt 0.041352 0.964227
vt 0.040665 0.964227
vt 0.041352 0.961478
vt 0.035165 0.961478
vt 0.034478 0.964227
vt 0.034478 0.961478
vt 0.035853 0.964227
vt 0.035165 0.964227
vt 0.035853 0.961478
vt 0.037228 0.964915
vt 0.039977 0.965602
vt 0.037228 0.965602
vt 0.037228 0.959415
vt 0.039977 0.960103
vt 0.037228 0.960103
vt 0.037228 0.955978
vt 0.039977 0.958728
vt 0.037228 0.958728
vt 0.039977 0.960790
vt 0.037228 0.961478
vt 0.037228 0.960790
vt 0.039977 0.961478
vt 0.037228 0.964227
vt 0.037228 0.966290
vt 0.039977 0.966977
vt 0.037228 0.966977
vt 0.036540 0.964227
vt 0.036540 0.961478
vt 0.042039 0.961478
vt 0.042727 0.964227
vt 0.042039 0.964227
vt 0.040665 0.961478
vt 0.039977 0.964227
vt 0.041352 0.964227
vt 0.040665 0.964227
vt 0.041352 0.961478
vt 0.035165 0.961478
vt 0.034478 0.964227
vt 0.034478 0.961478
vt 0.035853 0.961478
vt 0.035165 0.964227
vt 0.035853 0.964227
vt 0.037228 0.964915
vt 0.039977 0.965602
vt 0.037228 0.965602
vt 0.039977 0.966290
vt 0.037228 0.959415
vt 0.039977 0.959415
vt 0.037228 0.960103
vt 0.039977 0.960103
vt 0.039977 0.955978
vt 0.039977 0.960790
vt 0.039977 0.966977
vt 0.042727 0.964227
vt 0.039977 0.964915
vt 0.039977 0.959415
vt 0.039977 0.955978
vt 0.042727 0.961478
vt 0.039977 0.964915
vn -0.9770 -0.0561 0.2057
vn -0.9919 -0.1273 0.0031
vn -0.9392 -0.0041 0.3433
vn 0.0076 0.0625 -0.9980
vn 0.0100 0.1042 -0.9945
vn 0.0080 0.1114 -0.9937
vn 0.9453 0.2055 0.2535
vn 0.9844 0.1414 0.1050
vn 0.9950 0.0991 0.0102
vn -0.0148 -0.0774 0.9969
vn 0.0274 -0.2235 0.9743
vn -0.0191 -0.0779 0.9968
vn 0.0524 -0.9753 0.2148
vn 0.0866 -0.9700 0.2273
vn 0.0920 -0.9747 0.2039
vn -0.0627 0.9895 0.1304
vn -0.0950 0.9207 0.3786
vn -0.0956 0.9240 0.3703
vn -0.0715 0.9695 0.2343
vn -0.0472 0.9871 0.1527
vn -0.0465 0.9882 0.1458
vn -0.0983 0.9906 -0.0947
vn -0.0684 0.9653 0.2521
vn -0.0998 0.9873 -0.1238
vn 0.0958 -0.9754 -0.1984
vn 0.1032 -0.9904 -0.0923
vn 0.1036 -0.9908 -0.0868
vn 0.0808 -0.9759 -0.2028
vn 0.0954 -0.9752 -0.1998
vn 0.0772 -0.9724 -0.2202
vn 0.0000 -0.0187 0.9998
vn 0.0134 -0.0603 0.9981
vn -0.0013 -0.0129 0.9999
vn 0.0094 0.1002 0.9949
vn 0.0088 0.0989 0.9951
vn 0.0048 -0.0198 -0.9998
vn -0.0198 0.0770 -0.9968
vn 0.0031 -0.0348 -0.9994
vn -0.0293 0.0904 -0.9955
vn -0.0296 0.0937 -0.9952
vn -0.9976 0.0675 0.0182
vn -0.9945 0.0862 0.0599
vn -0.9984 0.0570 -0.0053
vn 0.0095 0.0779 -0.9969
vn -0.0028 0.0478 -0.9989
vn 0.0098 0.0785 -0.9969
vn 0.9989 -0.0011 -0.0463
vn 0.9966 -0.0277 -0.0782
vn 0.9901 -0.0658 -0.1237
vn 0.0058 -0.0515 0.9987
vn 0.0257 0.0050 0.9997
vn 0.0271 0.0135 0.9995
vn 0.0052 -0.9788 0.2048
vn 0.0307 -0.9969 0.0722
vn 0.0298 -0.9984 0.0473
vn -0.0470 0.9158 -0.3989
vn -0.0040 0.9978 -0.0662
vn -0.0464 0.9060 -0.4208
vn -0.0093 0.9484 -0.3171
vn 0.0183 0.9135 -0.4064
vn 0.0194 0.9099 -0.4143
vn -0.0444 0.9816 -0.1856
vn -0.0105 0.9474 -0.3200
vn -0.0443 0.9846 -0.1693
vn 0.0208 -0.9917 0.1270
vn 0.0388 -0.9969 0.0689
vn 0.0384 -0.9971 0.0653
vn 0.0297 -0.9363 0.3499
vn 0.0187 -0.9896 0.1430
vn 0.0290 -0.9292 0.3683
vn -0.0170 0.0104 0.9998
vn 0.0087 -0.1077 0.9941
vn -0.0219 0.0327 0.9992
vn 0.0117 -0.0348 0.9993
vn 0.0124 -0.0295 0.9995
vn 0.0051 -0.0540 0.9985
vn -0.0147 0.0746 -0.9971
vn -0.0443 -0.0049 -0.9990
vn -0.0129 0.0850 -0.9963
vn -0.0464 -0.0055 -0.9989
vn -0.0194 0.0560 -0.9982
vn -0.0178 0.0612 -0.9980
vn -0.9833 -0.1581 -0.0903
vn 0.0095 0.0572 -0.9983
vn 0.8935 0.2540 0.3703
vn 0.0326 -0.2413 0.9699
vn 0.0522 -0.9756 0.2132
vn -0.0609 0.9916 0.1141
vn 0.0134 -0.0750 0.9971
vn -0.0186 0.0850 -0.9962
vn -0.9913 0.0985 0.0876
vn -0.0038 0.0434 -0.9991
vn 0.9994 0.0359 -0.0020
vn 0.0065 -0.9763 0.2164
vn -0.0008 0.9992 -0.0388
vn 0.0097 -0.1246 0.9922
s 1
f 1/1/1 4/2/2 3/3/3
f 9/4/4 8/5/5 7/6/6
f 8/5/7 5/7/8 7/6/9
f 20/8/10 1/9/11 15/10/12
f 7/6/13 17/11/14 9/12/15
f 4/13/16 20/14/17 12/15/18
f 14/16/19 6/17/20 8/5/21
f 14/16/19 19/18/22 18/19/23
f 12/15/18 19/18/22 13/20/24
f 11/21/25 1/22/26 3/23/27
f 11/21/25 16/24/28 15/25/29
f 9/12/15 16/24/28 10/26/30
f 6/17/31 17/27/32 5/7/33
f 17/27/32 19/28/34 16/29/35
f 16/29/35 20/8/10 15/10/12
f 4/2/36 11/30/37 3/3/38
f 11/30/37 13/31/39 10/32/40
f 13/31/39 9/4/4 10/32/40
f 21/33/41 24/34/42 23/35/43
f 34/36/44 27/37/45 29/38/46
f 28/39/47 25/40/48 27/37/49
f 35/41/50 22/42/51 21/43/52
f 27/37/53 37/44/54 29/45/55
f 32/46/56 22/47/57 40/48/58
f 34/49/59 26/50/60 28/39/61
f 34/49/59 39/51/62 38/52/63
f 32/46/56 39/51/62 33/53/64
f 31/54/65 21/55/66 23/56/67
f 30/57/68 35/58/69 31/54/65
f 30/57/68 37/44/54 36/59/70
f 26/50/71 37/60/72 25/40/73
f 37/60/72 39/61/74 36/62/75
f 36/62/75 40/63/76 35/41/50
f 24/34/77 31/64/78 23/35/79
f 32/65/80 30/66/81 31/64/78
f 33/67/82 29/38/46 30/66/81
f 1/1/1 2/68/83 4/2/2
f 9/4/4 14/69/84 8/5/5
f 8/5/7 6/17/85 5/7/8
f 20/8/10 2/70/86 1/9/11
f 7/6/13 5/7/87 17/11/14
f 4/13/16 2/71/88 20/14/17
f 14/16/19 18/19/23 6/17/20
f 14/16/19 13/20/24 19/18/22
f 12/15/18 20/14/17 19/18/22
f 11/21/25 15/25/29 1/22/26
f 11/21/25 10/26/30 16/24/28
f 9/12/15 17/11/14 16/24/28
f 6/17/31 18/72/89 17/27/32
f 17/27/32 18/72/89 19/28/34
f 16/29/35 19/28/34 20/8/10
f 4/2/36 12/73/90 11/30/37
f 11/30/37 12/73/90 13/31/39
f 13/31/39 14/69/84 9/4/4
f 21/33/41 22/74/91 24/34/42
f 34/36/44 28/39/92 27/37/45
f 28/39/47 26/50/93 25/40/48
f 35/41/50 40/63/76 22/42/51
f 27/37/53 25/40/94 37/44/54
f 32/46/56 24/75/95 22/47/57
f 34/49/59 38/52/63 26/50/60
f 34/49/59 33/53/64 39/51/62
f 32/46/56 40/48/58 39/51/62
f 31/54/65 35/58/69 21/55/66
f 30/57/68 36/59/70 35/58/69
f 30/57/68 29/45/55 37/44/54
f 26/50/71 38/76/96 37/60/72
f 37/60/72 38/76/96 39/61/74
f 36/62/75 39/61/74 40/63/76
f 24/34/77 32/65/80 31/64/78
f 32/65/80 33/67/82 30/66/81
f 33/67/82 34/36/44 29/38/46
