# Blender v2.80 (sub 75) OBJ File: ''
# www.blender.org
o 2_Bar_Fence.001_Cube.010
v 0.016360 0.181587 0.000510
v 0.016353 0.205087 0.006011
v 0.016360 0.180863 -0.008619
v 0.016103 0.205810 -0.008424
v 0.488157 0.172423 0.001900
v 0.489173 0.194072 0.002152
v 0.488157 0.170482 -0.010806
v 0.488960 0.194937 -0.008070
v 0.370208 0.174176 -0.012728
v 0.252259 0.180412 -0.016245
v 0.134309 0.179394 -0.007706
v 0.134915 0.203426 -0.006815
v 0.252856 0.197895 -0.013790
v 0.370805 0.199506 -0.011158
v 0.134309 0.180242 0.000866
v 0.252259 0.177860 0.005026
v 0.370208 0.177916 0.001430
v 0.370805 0.199108 0.003063
v 0.252856 0.201823 0.002168
v 0.134907 0.201817 0.001662
v 0.016275 0.076998 0.006694
v 0.017830 0.101682 0.006298
v 0.016275 0.076019 -0.006270
v 0.017830 0.100497 -0.004164
v 0.487285 0.056197 0.003794
v 0.488840 0.081034 0.002959
v 0.487285 0.052583 -0.012405
v 0.488840 0.074448 -0.011459
v 0.369533 0.062737 -0.012749
v 0.251780 0.062532 -0.014774
v 0.134027 0.072159 -0.007412
v 0.135582 0.093646 -0.008049
v 0.253335 0.093996 -0.013493
v 0.371088 0.085963 -0.010890
v 0.134027 0.074992 0.003387
v 0.251780 0.070964 0.004288
v 0.369533 0.063581 0.001196
v 0.371088 0.091649 0.004673
v 0.253335 0.096446 0.004476
v 0.135582 0.099830 0.004439
vt 0.037228 0.955978
vt 0.039977 0.958728
vt 0.037228 0.958728
vt 0.037228 0.960790
vt 0.039977 0.961478
vt 0.037228 0.961478
vt 0.037228 0.964227
vt 0.039977 0.966290
vt 0.037228 0.966977
vt 0.037228 0.966290
vt 0.036540 0.964227
vt 0.036540 0.961478
vt 0.042727 0.961478
vt 0.042039 0.964227
vt 0.042039 0.961478
vt 0.040665 0.964227
vt 0.039977 0.964227
vt 0.040665 0.961478
vt 0.041352 0.964227
vt 0.041352 0.961478
vt 0.035165 0.961478
vt 0.034478 0.964227
vt 0.034478 0.961478
vt 0.035853 0.964227
vt 0.035165 0.964227
vt 0.035853 0.961478
vt 0.037228 0.964915
vt 0.039977 0.965602
vt 0.037228 0.965602
vt 0.039977 0.959415
vt 0.037228 0.959415
vt 0.037228 0.960103
vt 0.039977 0.960103
vt 0.037228 0.955978
vt 0.039977 0.958728
vt 0.037228 0.958728
vt 0.037228 0.960790
vt 0.039977 0.961478
vt 0.037228 0.961478
vt 0.037228 0.964227
vt 0.037228 0.966290
vt 0.039977 0.966977
vt 0.037228 0.966977
vt 0.036540 0.964227
vt 0.036540 0.961478
vt 0.042727 0.961478
vt 0.042039 0.964227
vt 0.042039 0.961478
vt 0.040665 0.961478
vt 0.039977 0.964227
vt 0.041352 0.961478
vt 0.040665 0.964227
vt 0.041352 0.964227
vt 0.034478 0.961478
vt 0.035165 0.964227
vt 0.034478 0.964227
vt 0.035165 0.961478
vt 0.035853 0.964227
vt 0.035853 0.961478
vt 0.037228 0.964915
vt 0.039977 0.965602
vt 0.037228 0.965602
vt 0.039977 0.966290
vt 0.037228 0.959415
vt 0.039977 0.959415
vt 0.037228 0.960103
vt 0.039977 0.960103
vt 0.039977 0.955978
vt 0.039977 0.960790
vt 0.039977 0.966977
vt 0.042727 0.964227
vt 0.039977 0.964915
vt 0.039977 0.955978
vt 0.039977 0.960790
vt 0.042727 0.964227
vt 0.039977 0.964915
vn -0.9999 -0.0084 0.0059
vn -0.9999 -0.0057 0.0133
vn -0.9999 -0.0103 0.0008
vn 0.0251 0.0682 -0.9974
vn 0.0208 0.1039 -0.9944
vn 0.0197 0.1105 -0.9937
vn 0.9990 -0.0422 -0.0149
vn 0.9993 -0.0366 -0.0023
vn 0.9994 -0.0334 0.0051
vn -0.0157 -0.0387 0.9991
vn 0.0257 -0.2064 0.9781
vn -0.0196 -0.0363 0.9991
vn -0.0457 -0.9862 0.1591
vn -0.0442 -0.9719 0.2312
vn -0.0466 -0.9658 0.2551
vn 0.0288 0.9980 0.0560
vn 0.0087 0.9834 0.1813
vn 0.0095 0.9856 0.1688
vn 0.0426 0.9959 0.0793
vn 0.0305 0.9991 0.0295
vn 0.0430 0.9956 0.0834
vn 0.0289 0.9995 0.0162
vn 0.0122 0.9755 -0.2197
vn 0.0115 0.9710 -0.2390
vn -0.0165 -0.9962 0.0859
vn -0.0130 -0.9967 0.0800
vn -0.0130 -0.9968 0.0791
vn -0.0022 -0.9935 -0.1140
vn -0.0177 -0.9950 0.0984
vn -0.0039 -0.9945 -0.1042
vn -0.0035 -0.0188 0.9998
vn -0.0005 -0.0607 0.9982
vn -0.0045 -0.0114 0.9999
vn 0.0109 0.1071 0.9942
vn 0.0110 0.1092 0.9940
vn 0.0130 0.0116 -0.9998
vn -0.0306 0.0407 -0.9987
vn -0.0316 0.0378 -0.9988
vn -0.0091 0.1329 -0.9911
vn -0.0081 0.1343 -0.9909
vn -0.9980 0.0635 -0.0054
vn -0.9980 0.0631 -0.0064
vn -0.9980 0.0638 -0.0048
vn 0.0147 0.0736 -0.9972
vn 0.0062 0.0473 -0.9989
vn 0.0066 0.0428 -0.9991
vn 0.9976 -0.0652 0.0237
vn 0.9975 -0.0678 0.0205
vn 0.9973 -0.0716 0.0160
vn 0.0042 -0.0387 0.9992
vn 0.0266 0.0068 0.9996
vn 0.0283 0.0142 0.9995
vn -0.0674 -0.9763 0.2056
vn -0.0443 -0.9953 0.0864
vn -0.0425 -0.9973 0.0603
vn 0.0156 0.9904 -0.1372
vn 0.0311 0.8999 -0.4349
vn 0.0298 0.9026 -0.4295
vn 0.0758 0.9354 -0.3453
vn 0.0860 0.9090 -0.4078
vn 0.0866 0.9062 -0.4139
vn 0.0174 0.9893 -0.1446
vn 0.0739 0.9402 -0.3324
vn 0.0169 0.9890 -0.1469
vn -0.0157 -0.9962 0.0860
vn -0.0316 -0.9684 0.2476
vn -0.0149 -0.9970 0.0753
vn -0.0330 -0.9645 0.2621
vn -0.0476 -0.9154 0.3996
vn -0.0463 -0.9189 0.3917
vn -0.0165 0.0114 0.9998
vn -0.0010 -0.1048 0.9945
vn -0.0199 0.0348 0.9992
vn 0.0104 -0.0167 0.9998
vn 0.0119 -0.0104 0.9999
vn 0.0033 -0.0401 0.9992
vn -0.0100 0.0732 -0.9973
vn -0.0475 -0.0187 -0.9987
vn -0.0068 0.0861 -0.9963
vn -0.0484 -0.0204 -0.9986
vn -0.0158 0.0374 -0.9992
vn -0.0136 0.0438 -0.9989
vn -0.9998 -0.0043 0.0171
vn 0.0250 0.0613 -0.9978
vn 0.9986 -0.0466 -0.0248
vn 0.0294 -0.2278 0.9733
vn -0.0466 -0.9875 0.1509
vn 0.0293 0.9983 0.0495
vn -0.0025 -0.0768 0.9970
vn 0.0137 0.0080 -0.9999
vn -0.9980 0.0628 -0.0071
vn 0.0153 0.0788 -0.9968
vn 0.9977 -0.0615 0.0281
vn -0.0659 -0.9739 0.2173
vn 0.0138 0.9936 -0.1124
vn -0.0017 -0.1228 0.9924
s 1
f 1/1/1 4/2/2 3/3/3
f 9/4/4 8/5/5 7/6/6
f 8/5/7 5/7/8 7/6/9
f 20/8/10 1/9/11 15/10/12
f 7/6/13 17/11/14 9/12/15
f 4/13/16 20/14/17 12/15/18
f 8/5/19 18/16/20 6/17/21
f 14/18/22 19/19/23 18/16/20
f 12/15/18 19/19/23 13/20/24
f 11/21/25 1/22/26 3/23/27
f 11/21/25 16/24/28 15/25/29
f 10/26/30 17/11/14 16/24/28
f 6/17/31 17/27/32 5/7/33
f 17/27/32 19/28/34 16/29/35
f 16/29/35 20/8/10 15/10/12
f 3/3/36 12/30/37 11/31/38
f 12/30/37 10/32/39 11/31/38
f 13/33/40 9/4/4 10/32/39
f 21/34/41 24/35/42 23/36/43
f 29/37/44 28/38/45 27/39/46
f 28/38/47 25/40/48 27/39/49
f 35/41/50 22/42/51 21/43/52
f 27/39/53 37/44/54 29/45/55
f 24/46/56 40/47/57 32/48/58
f 34/49/59 26/50/60 28/38/61
f 33/51/62 38/52/63 34/49/59
f 32/48/58 39/53/64 33/51/62
f 23/54/65 35/55/66 21/56/67
f 31/57/68 36/58/69 35/55/66
f 30/59/70 37/44/54 36/58/69
f 26/50/71 37/60/72 25/40/73
f 37/60/72 39/61/74 36/62/75
f 36/62/75 40/63/76 35/41/50
f 24/35/77 31/64/78 23/36/79
f 32/65/80 30/66/81 31/64/78
f 33/67/82 29/37/44 30/66/81
f 1/1/1 2/68/83 4/2/2
f 9/4/4 14/69/84 8/5/5
f 8/5/7 6/17/85 5/7/8
f 20/8/10 2/70/86 1/9/11
f 7/6/13 5/7/87 17/11/14
f 4/13/16 2/71/88 20/14/17
f 8/5/19 14/18/22 18/16/20
f 14/18/22 13/20/24 19/19/23
f 12/15/18 20/14/17 19/19/23
f 11/21/25 15/25/29 1/22/26
f 11/21/25 10/26/30 16/24/28
f 10/26/30 9/12/15 17/11/14
f 6/17/31 18/72/89 17/27/32
f 17/27/32 18/72/89 19/28/34
f 16/29/35 19/28/34 20/8/10
f 3/3/36 4/2/90 12/30/37
f 12/30/37 13/33/40 10/32/39
f 13/33/40 14/69/84 9/4/4
f 21/34/41 22/73/91 24/35/42
f 29/37/44 34/74/92 28/38/45
f 28/38/47 26/50/93 25/40/48
f 35/41/50 40/63/76 22/42/51
f 27/39/53 25/40/94 37/44/54
f 24/46/56 22/75/95 40/47/57
f 34/49/59 38/52/63 26/50/60
f 33/51/62 39/53/64 38/52/63
f 32/48/58 40/47/57 39/53/64
f 23/54/65 31/57/68 35/55/66
f 31/57/68 30/59/70 36/58/69
f 30/59/70 29/45/55 37/44/54
f 26/50/71 38/76/96 37/60/72
f 37/60/72 38/76/96 39/61/74
f 36/62/75 39/61/74 40/63/76
f 24/35/77 32/65/80 31/64/78
f 32/65/80 33/67/82 30/66/81
f 33/67/82 34/74/92 29/37/44
