# Blender v2.80 (sub 75) OBJ File: ''
# www.blender.org
o Fence_Cube
v 0.530756 0.353983 -0.018139
v 0.520072 0.003796 -0.016961
v 0.530756 0.354450 0.020291
v 0.520072 0.002728 0.017981
v 0.490756 0.353362 -0.017062
v 0.480072 0.004865 -0.019566
v 0.490756 0.353238 0.020823
v 0.480072 0.007446 0.019739
v 0.523669 0.298231 -0.014496
v 0.520356 0.199432 -0.014581
v 0.520072 0.100287 -0.010500
v 0.480072 0.105493 0.018535
v 0.480619 0.201629 0.021201
v 0.483475 0.297295 0.021361
v 0.524828 0.298104 0.024255
v 0.520325 0.201330 0.020108
v 0.520072 0.101757 0.018900
v 0.484309 0.296750 -0.016567
v 0.480652 0.199012 -0.013562
v 0.480072 0.099989 -0.015269
v 0.010667 0.354562 -0.014792
v 0.020072 0.001930 -0.019323
v 0.010667 0.354562 0.019693
v 0.020072 -0.000276 0.015427
v -0.029333 0.354562 -0.017441
v -0.019928 0.000477 -0.019660
v -0.029333 0.354562 0.022711
v -0.019928 0.000711 0.018450
v 0.015078 0.298988 -0.008132
v 0.019935 0.199883 -0.013235
v 0.020072 0.100820 -0.011700
v -0.019928 0.099897 0.010237
v -0.019933 0.199562 0.011526
v -0.022287 0.298988 0.017886
v 0.018373 0.298988 0.016628
v 0.019573 0.199696 0.012632
v 0.020072 0.102350 0.012846
v -0.024545 0.298988 -0.012613
v -0.020293 0.199364 -0.011021
v -0.019928 0.099894 -0.014890
v 0.014254 0.269319 0.007929
v 0.014903 0.294190 0.008472
v 0.016646 0.269380 -0.006888
v 0.014358 0.294190 -0.005300
v 0.490172 0.277388 0.005028
v 0.488329 0.302747 0.005293
v 0.492801 0.276257 -0.010209
v 0.493504 0.302440 -0.009716
v 0.372056 0.275336 -0.011460
v 0.252785 0.273529 -0.013735
v 0.133824 0.271699 -0.006776
v 0.132569 0.295845 -0.006359
v 0.252330 0.293850 -0.014686
v 0.371465 0.295861 -0.010625
v 0.133109 0.272498 0.007478
v 0.252785 0.271554 0.003277
v 0.371224 0.273025 0.000194
v 0.373232 0.295878 0.003057
v 0.252330 0.293798 0.001192
v 0.131735 0.295145 0.006550
v 0.016360 0.181587 0.000510
v 0.016353 0.205087 0.006011
v 0.016360 0.180863 -0.008619
v 0.016103 0.205810 -0.008424
v 0.488157 0.172423 0.001900
v 0.489173 0.194072 0.002152
v 0.488157 0.170482 -0.010806
v 0.488960 0.194937 -0.008070
v 0.370208 0.174176 -0.012728
v 0.252259 0.180412 -0.016245
v 0.134309 0.179394 -0.007706
v 0.134915 0.203426 -0.006815
v 0.252856 0.197895 -0.013790
v 0.370805 0.199506 -0.011158
v 0.134309 0.180242 0.000866
v 0.252259 0.177860 0.005026
v 0.370208 0.177916 0.001430
v 0.370805 0.199108 0.003063
v 0.252856 0.201823 0.002168
v 0.134907 0.201817 0.001662
v 0.016275 0.076998 0.006694
v 0.017830 0.101682 0.006298
v 0.016275 0.076019 -0.006270
v 0.017830 0.100497 -0.004164
v 0.487285 0.056197 0.003794
v 0.488840 0.081034 0.002959
v 0.487285 0.052583 -0.012405
v 0.488840 0.074448 -0.011459
v 0.369533 0.062737 -0.012749
v 0.251780 0.062532 -0.014774
v 0.134027 0.072159 -0.007412
v 0.135582 0.093646 -0.008049
v 0.253335 0.093996 -0.013493
v 0.371088 0.085963 -0.010890
v 0.134027 0.074992 0.003387
v 0.251780 0.070964 0.004288
v 0.369533 0.063581 0.001196
v 0.371088 0.091649 0.004673
v 0.253335 0.096446 0.004476
v 0.135582 0.099830 0.004439
vt 0.039977 0.955978
vt 0.037228 0.958728
vt 0.037228 0.955978
vt 0.039290 0.958728
vt 0.039977 0.961478
vt 0.039290 0.961478
vt 0.039290 0.964227
vt 0.039977 0.964227
vt 0.037228 0.966977
vt 0.037228 0.964227
vt 0.036540 0.961478
vt 0.037228 0.964227
vt 0.036540 0.964227
vt 0.042727 0.961478
vt 0.042039 0.964227
vt 0.042039 0.961478
vt 0.039977 0.961478
vt 0.040665 0.964227
vt 0.041352 0.961478
vt 0.040665 0.961478
vt 0.041352 0.964227
vt 0.035165 0.961478
vt 0.034478 0.964227
vt 0.034478 0.961478
vt 0.035853 0.961478
vt 0.035165 0.964227
vt 0.035853 0.964227
vt 0.037228 0.961478
vt 0.037915 0.964227
vt 0.037915 0.961478
vt 0.038602 0.964227
vt 0.038602 0.961478
vt 0.037915 0.958728
vt 0.037228 0.958728
vt 0.038602 0.958728
vt 0.039769 0.956597
vt 0.037514 0.958852
vt 0.037514 0.956597
vt 0.039769 0.958852
vt 0.039206 0.961107
vt 0.039206 0.958852
vt 0.039769 0.961107
vt 0.039206 0.963362
vt 0.037514 0.963362
vt 0.039769 0.965617
vt 0.037514 0.965617
vt 0.036950 0.961107
vt 0.037514 0.963362
vt 0.036950 0.963362
vt 0.041461 0.961107
vt 0.042024 0.963362
vt 0.041461 0.963362
vt 0.040333 0.961107
vt 0.039769 0.963362
vt 0.039769 0.961107
vt 0.040897 0.961107
vt 0.040333 0.963362
vt 0.040897 0.963362
vt 0.035823 0.961107
vt 0.035259 0.963362
vt 0.035259 0.961107
vt 0.036387 0.961107
vt 0.035823 0.963362
vt 0.036387 0.963362
vt 0.038078 0.961107
vt 0.037514 0.961107
vt 0.038642 0.963362
vt 0.038078 0.963362
vt 0.038642 0.961107
vt 0.037514 0.958852
vt 0.038078 0.958852
vt 0.038642 0.958852
vt 0.037228 0.955978
vt 0.039977 0.958728
vt 0.037228 0.958728
vt 0.039977 0.960790
vt 0.037228 0.961478
vt 0.037228 0.960790
vt 0.039977 0.961478
vt 0.037228 0.964227
vt 0.037228 0.966290
vt 0.039977 0.966977
vt 0.037228 0.966977
vt 0.036540 0.961478
vt 0.036540 0.964227
vt 0.042727 0.961478
vt 0.042039 0.964227
vt 0.042039 0.961478
vt 0.040665 0.961478
vt 0.039977 0.964227
vt 0.041352 0.964227
vt 0.040665 0.964227
vt 0.041352 0.961478
vt 0.034478 0.961478
vt 0.035165 0.964227
vt 0.034478 0.964227
vt 0.035165 0.961478
vt 0.035853 0.964227
vt 0.035853 0.961478
vt 0.039977 0.964915
vt 0.037228 0.964915
vt 0.039977 0.965602
vt 0.037228 0.965602
vt 0.039977 0.959415
vt 0.037228 0.959415
vt 0.039977 0.960103
vt 0.037228 0.960103
vt 0.037228 0.955978
vt 0.039977 0.958728
vt 0.037228 0.958728
vt 0.037228 0.960790
vt 0.039977 0.961478
vt 0.037228 0.961478
vt 0.037228 0.964227
vt 0.039977 0.966290
vt 0.037228 0.966977
vt 0.037228 0.966290
vt 0.036540 0.964227
vt 0.036540 0.961478
vt 0.042727 0.961478
vt 0.042039 0.964227
vt 0.042039 0.961478
vt 0.040665 0.964227
vt 0.039977 0.964227
vt 0.040665 0.961478
vt 0.041352 0.964227
vt 0.041352 0.961478
vt 0.035165 0.961478
vt 0.034478 0.964227
vt 0.034478 0.961478
vt 0.035853 0.964227
vt 0.035165 0.964227
vt 0.035853 0.961478
vt 0.037228 0.964915
vt 0.039977 0.965602
vt 0.037228 0.965602
vt 0.039977 0.959415
vt 0.037228 0.959415
vt 0.037228 0.960103
vt 0.039977 0.960103
vt 0.037228 0.955978
vt 0.039977 0.958728
vt 0.037228 0.958728
vt 0.037228 0.960790
vt 0.039977 0.961478
vt 0.037228 0.961478
vt 0.037228 0.964227
vt 0.037228 0.966290
vt 0.039977 0.966977
vt 0.037228 0.966977
vt 0.036540 0.964227
vt 0.036540 0.961478
vt 0.042727 0.961478
vt 0.042039 0.964227
vt 0.042039 0.961478
vt 0.040665 0.961478
vt 0.039977 0.964227
vt 0.041352 0.961478
vt 0.040665 0.964227
vt 0.041352 0.964227
vt 0.034478 0.961478
vt 0.035165 0.964227
vt 0.034478 0.964227
vt 0.035165 0.961478
vt 0.035853 0.964227
vt 0.035853 0.961478
vt 0.037228 0.964915
vt 0.039977 0.965602
vt 0.037228 0.965602
vt 0.039977 0.966290
vt 0.037228 0.959415
vt 0.039977 0.959415
vt 0.037228 0.960103
vt 0.039977 0.960103
vt 0.039977 0.958728
vt 0.039977 0.958728
vt 0.039977 0.964227
vt 0.039977 0.966977
vt 0.037228 0.961478
vt 0.042727 0.964227
vt 0.039769 0.958852
vt 0.039769 0.963362
vt 0.037514 0.961107
vt 0.042024 0.961107
vt 0.039977 0.955978
vt 0.039977 0.966290
vt 0.042727 0.964227
vt 0.039977 0.955978
vt 0.039977 0.960790
vt 0.039977 0.966977
vt 0.042727 0.964227
vt 0.039977 0.964915
vt 0.039977 0.955978
vt 0.039977 0.960790
vt 0.042727 0.964227
vt 0.039977 0.964915
vn -0.0232 0.9997 -0.0042
vn -0.0228 0.9997 -0.0047
vn -0.0159 0.9998 -0.0121
vn -0.0529 0.0017 0.9986
vn -0.0209 0.0492 0.9986
vn -0.0570 -0.0075 0.9983
vn -0.9929 0.1190 -0.0086
vn -0.9969 0.0775 -0.0164
vn -0.9966 0.0797 -0.0230
vn -0.0755 -0.9970 0.0168
vn -0.0711 -0.9972 0.0217
vn -0.0309 -0.9974 0.0655
vn 0.9967 -0.0791 -0.0205
vn 0.9929 -0.1187 -0.0105
vn 0.9967 -0.0757 -0.0301
vn 0.0044 -0.0439 -0.9990
vn 0.0367 -0.0180 -0.9992
vn 0.0429 -0.0110 -0.9990
vn 0.0795 0.0612 -0.9950
vn 0.0943 0.0263 -0.9952
vn 0.0666 0.0667 -0.9955
vn -0.0074 -0.0284 -0.9996
vn 0.1181 0.0307 -0.9925
vn -0.0157 -0.0318 -0.9994
vn 1.0000 -0.0014 0.0001
vn 1.0000 0.0000 0.0000
vn 0.9998 -0.0177 0.0018
vn 1.0000 -0.0015 0.0002
vn 0.9998 -0.0203 -0.0021
vn -1.0000 0.0000 0.0000
vn -1.0000 0.0026 -0.0004
vn -1.0000 0.0032 -0.0006
vn -0.9998 0.0208 -0.0025
vn -0.9998 0.0215 -0.0049
vn -0.0026 -0.0019 1.0000
vn 0.0307 -0.0042 0.9995
vn 0.0428 -0.0093 0.9990
vn 0.0102 -0.0179 0.9998
vn -0.0045 -0.0026 1.0000
vn 0.0274 -0.0153 0.9995
vn 0.0000 1.0000 0.0000
vn 0.0577 -0.0666 0.9961
vn 0.0399 -0.0620 0.9973
vn 0.0235 -0.0544 0.9982
vn -0.9946 -0.1007 0.0237
vn -0.9958 -0.0736 0.0548
vn -0.9939 -0.0824 0.0736
vn 0.0036 -0.9997 -0.0256
vn 0.0073 -0.9995 -0.0298
vn -0.0242 -0.9997 0.0061
vn 0.9925 0.0733 -0.0973
vn 0.9947 0.0967 -0.0355
vn 0.9879 0.0819 -0.1315
vn 0.1028 -0.0566 -0.9931
vn 0.0838 -0.0920 -0.9922
vn 0.0912 -0.0507 -0.9945
vn 0.0693 0.0546 -0.9961
vn 0.0238 0.0549 -0.9982
vn 0.0067 0.0479 -0.9988
vn -0.0187 0.0162 -0.9997
vn 0.0616 0.0508 -0.9968
vn -0.0552 0.0163 -0.9983
vn 1.0000 0.0006 -0.0000
vn 0.9996 0.0262 0.0131
vn 1.0000 0.0010 0.0011
vn 0.9997 0.0245 0.0028
vn -1.0000 -0.0016 0.0011
vn -0.9997 -0.0213 0.0149
vn -1.0000 -0.0018 0.0000
vn -0.9996 -0.0206 0.0216
vn 0.0420 0.0684 0.9968
vn -0.0481 0.0138 0.9987
vn 0.0771 0.0823 0.9936
vn -0.0610 0.0072 0.9981
vn -0.0252 -0.0240 0.9994
vn -0.0279 -0.0192 0.9994
vn -0.9943 -0.0470 -0.0960
vn -0.9995 -0.0109 -0.0284
vn -0.9840 -0.0806 -0.1592
vn 0.0148 0.0349 -0.9993
vn 0.0068 0.0210 -0.9998
vn 0.0142 0.0411 -0.9991
vn 0.9616 0.0325 0.2725
vn 0.9744 0.0028 0.2249
vn 0.9846 -0.0297 0.1721
vn 0.0296 0.0416 0.9987
vn 0.0058 -0.0144 0.9999
vn 0.0044 -0.0219 0.9997
vn 0.0302 -0.9829 -0.1816
vn 0.0090 -0.9982 0.0597
vn 0.0302 -0.9815 -0.1888
vn -0.0086 1.0000 0.0041
vn -0.0006 0.9986 0.0521
vn 0.0011 0.9986 0.0520
vn -0.0362 0.9993 0.0017
vn -0.0539 0.9979 -0.0360
vn -0.0535 0.9978 -0.0388
vn -0.0000 1.0000 0.0049
vn -0.0404 0.9992 0.0040
vn -0.0003 1.0000 0.0033
vn 0.0262 -0.9996 0.0042
vn 0.0077 -0.9985 0.0540
vn 0.0267 -0.9996 0.0002
vn 0.0069 -0.9988 0.0486
vn 0.0084 -0.9940 -0.1089
vn 0.0092 -0.9930 -0.1178
vn -0.0209 -0.0257 0.9995
vn -0.0243 -0.1147 0.9931
vn -0.0215 -0.1094 0.9938
vn 0.0285 0.0779 0.9966
vn 0.0302 0.0939 0.9951
vn -0.0085 0.0573 -0.9983
vn -0.0338 0.0187 -0.9993
vn -0.0344 0.0121 -0.9993
vn -0.0128 -0.0431 -0.9990
vn -0.0121 -0.0423 -0.9990
vn -0.9999 -0.0084 0.0059
vn -0.9999 -0.0057 0.0133
vn -0.9999 -0.0103 0.0008
vn 0.0251 0.0682 -0.9974
vn 0.0208 0.1039 -0.9944
vn 0.0197 0.1105 -0.9937
vn 0.9990 -0.0422 -0.0149
vn 0.9993 -0.0366 -0.0023
vn 0.9994 -0.0334 0.0051
vn -0.0157 -0.0387 0.9991
vn 0.0257 -0.2064 0.9781
vn -0.0196 -0.0363 0.9991
vn -0.0457 -0.9862 0.1591
vn -0.0442 -0.9719 0.2312
vn -0.0466 -0.9658 0.2551
vn 0.0288 0.9980 0.0560
vn 0.0087 0.9834 0.1813
vn 0.0095 0.9856 0.1688
vn 0.0426 0.9959 0.0793
vn 0.0305 0.9991 0.0295
vn 0.0430 0.9956 0.0834
vn 0.0289 0.9995 0.0162
vn 0.0122 0.9755 -0.2197
vn 0.0115 0.9710 -0.2390
vn -0.0165 -0.9962 0.0859
vn -0.0130 -0.9967 0.0800
vn -0.0130 -0.9968 0.0791
vn -0.0022 -0.9935 -0.1140
vn -0.0177 -0.9950 0.0984
vn -0.0039 -0.9945 -0.1042
vn -0.0035 -0.0188 0.9998
vn -0.0005 -0.0607 0.9982
vn -0.0045 -0.0114 0.9999
vn 0.0109 0.1071 0.9942
vn 0.0110 0.1092 0.9940
vn 0.0130 0.0116 -0.9998
vn -0.0306 0.0407 -0.9987
vn -0.0316 0.0378 -0.9988
vn -0.0091 0.1329 -0.9911
vn -0.0081 0.1343 -0.9909
vn -0.9980 0.0635 -0.0054
vn -0.9980 0.0631 -0.0064
vn -0.9980 0.0638 -0.0048
vn 0.0147 0.0736 -0.9972
vn 0.0062 0.0473 -0.9989
vn 0.0066 0.0428 -0.9991
vn 0.9976 -0.0652 0.0237
vn 0.9975 -0.0678 0.0205
vn 0.9973 -0.0716 0.0160
vn 0.0042 -0.0387 0.9992
vn 0.0266 0.0068 0.9996
vn 0.0283 0.0142 0.9995
vn -0.0674 -0.9763 0.2056
vn -0.0443 -0.9953 0.0864
vn -0.0425 -0.9973 0.0603
vn 0.0156 0.9904 -0.1372
vn 0.0311 0.8999 -0.4349
vn 0.0298 0.9026 -0.4295
vn 0.0758 0.9354 -0.3453
vn 0.0860 0.9090 -0.4078
vn 0.0866 0.9062 -0.4139
vn 0.0174 0.9893 -0.1446
vn 0.0739 0.9402 -0.3324
vn 0.0169 0.9890 -0.1469
vn -0.0157 -0.9962 0.0860
vn -0.0316 -0.9684 0.2476
vn -0.0149 -0.9970 0.0753
vn -0.0330 -0.9645 0.2621
vn -0.0476 -0.9154 0.3996
vn -0.0463 -0.9189 0.3917
vn -0.0165 0.0114 0.9998
vn -0.0010 -0.1048 0.9945
vn -0.0199 0.0348 0.9992
vn 0.0104 -0.0167 0.9998
vn 0.0119 -0.0104 0.9999
vn 0.0033 -0.0401 0.9992
vn -0.0100 0.0732 -0.9973
vn -0.0475 -0.0187 -0.9987
vn -0.0068 0.0861 -0.9963
vn -0.0484 -0.0204 -0.9986
vn -0.0158 0.0374 -0.9992
vn -0.0136 0.0438 -0.9989
vn -0.0303 0.9995 0.0033
vn 0.0112 0.0690 0.9976
vn -0.9936 0.1132 0.0004
vn -0.1184 -0.9925 -0.0303
vn 0.9920 -0.1260 0.0015
vn -0.0259 -0.0619 -0.9977
vn 0.0750 -0.0768 0.9942
vn -0.9963 -0.0858 0.0000
vn 0.0368 -0.9973 -0.0633
vn 0.9969 0.0791 0.0000
vn 0.0659 -0.0807 -0.9946
vn -0.9989 0.0252 0.0395
vn 0.0064 0.0187 -0.9998
vn 0.9438 0.0652 0.3241
vn 0.0299 0.0428 0.9986
vn 0.0068 -0.9971 0.0752
vn -0.0082 1.0000 0.0003
vn -0.0187 -0.0118 0.9998
vn -0.0098 0.0630 -0.9980
vn -0.9998 -0.0043 0.0171
vn 0.0250 0.0613 -0.9978
vn 0.9986 -0.0466 -0.0248
vn 0.0294 -0.2278 0.9733
vn -0.0466 -0.9875 0.1509
vn 0.0293 0.9983 0.0495
vn -0.0025 -0.0768 0.9970
vn 0.0137 0.0080 -0.9999
vn -0.9980 0.0628 -0.0071
vn 0.0153 0.0788 -0.9968
vn 0.9977 -0.0615 0.0281
vn -0.0659 -0.9739 0.2173
vn 0.0138 0.9936 -0.1124
vn -0.0017 -0.1228 0.9924
s 1
f 5/1/1 3/2/2 1/3/3
f 15/4/4 7/5/5 14/6/6
f 7/5/7 18/7/8 14/6/9
f 2/8/10 8/9/11 6/10/12
f 9/11/13 3/12/14 15/13/15
f 5/14/16 9/15/17 18/16/18
f 6/17/19 11/18/20 2/8/21
f 19/19/22 11/18/20 20/20/23
f 18/16/18 10/21/24 19/19/22
f 11/22/25 4/23/26 2/24/26
f 10/25/27 17/26/28 11/22/25
f 9/11/13 16/27/29 10/25/27
f 8/28/30 20/29/31 6/10/30
f 12/30/32 19/31/33 20/29/31
f 13/32/34 18/7/8 19/31/33
f 17/33/35 8/28/36 4/34/37
f 16/35/38 12/30/39 17/33/35
f 16/35/38 14/6/6 13/32/40
f 25/36/41 23/37/41 21/38/41
f 23/39/42 34/40/43 35/41/44
f 27/42/45 38/43/46 34/40/47
f 26/44/48 24/45/49 28/46/50
f 29/47/51 23/48/52 35/49/53
f 38/50/54 21/51/55 29/52/56
f 40/53/57 22/54/58 26/55/59
f 39/56/60 31/57/61 40/53/57
f 39/56/60 29/52/56 30/58/62
f 31/59/63 24/60/26 22/61/26
f 30/62/64 37/63/65 31/59/63
f 29/47/51 36/64/66 30/62/64
f 32/65/67 26/44/30 28/66/30
f 32/65/67 39/67/68 40/68/69
f 33/69/70 38/43/46 39/67/68
f 24/70/71 32/65/72 28/66/73
f 37/71/74 33/69/75 32/65/72
f 35/41/44 33/69/75 36/72/76
f 41/73/77 44/74/78 43/75/79
f 54/76/80 47/77/81 49/78/82
f 48/79/83 45/80/84 47/77/85
f 55/81/86 42/82/87 41/83/88
f 49/84/89 45/80/90 57/85/91
f 44/86/92 60/87/93 52/88/94
f 54/89/95 46/90/96 48/79/97
f 54/89/95 59/91/98 58/92/99
f 52/88/94 59/91/98 53/93/100
f 43/94/101 55/95/102 41/96/103
f 51/97/104 56/98/105 55/95/102
f 50/99/106 57/85/91 56/98/105
f 45/80/107 58/100/108 57/101/109
f 57/101/109 59/102/110 56/103/111
f 59/102/110 55/81/86 56/103/111
f 43/75/112 52/104/113 51/105/114
f 51/105/114 53/106/115 50/107/116
f 50/107/116 54/76/80 49/78/82
f 61/108/117 64/109/118 63/110/119
f 69/111/120 68/112/121 67/113/122
f 68/112/123 65/114/124 67/113/125
f 80/115/126 61/116/127 75/117/128
f 67/113/129 77/118/130 69/119/131
f 64/120/132 80/121/133 72/122/134
f 68/112/135 78/123/136 66/124/137
f 74/125/138 79/126/139 78/123/136
f 72/122/134 79/126/139 73/127/140
f 71/128/141 61/129/142 63/130/143
f 71/128/141 76/131/144 75/132/145
f 70/133/146 77/118/130 76/131/144
f 66/124/147 77/134/148 65/114/149
f 77/134/148 79/135/150 76/136/151
f 76/136/151 80/115/126 75/117/128
f 63/110/152 72/137/153 71/138/154
f 72/137/153 70/139/155 71/138/154
f 73/140/156 69/111/120 70/139/155
f 81/141/157 84/142/158 83/143/159
f 89/144/160 88/145/161 87/146/162
f 88/145/163 85/147/164 87/146/165
f 95/148/166 82/149/167 81/150/168
f 87/146/169 97/151/170 89/152/171
f 84/153/172 100/154/173 92/155/174
f 94/156/175 86/157/176 88/145/177
f 93/158/178 98/159/179 94/156/175
f 92/155/174 99/160/180 93/158/178
f 83/161/181 95/162/182 81/163/183
f 91/164/184 96/165/185 95/162/182
f 90/166/186 97/151/170 96/165/185
f 86/157/187 97/167/188 85/147/189
f 97/167/188 99/168/190 96/169/191
f 96/169/191 100/170/192 95/148/166
f 84/142/193 91/171/194 83/143/195
f 92/172/196 90/173/197 91/171/194
f 93/174/198 89/144/160 90/173/197
f 5/1/1 7/175/199 3/2/2
f 15/4/4 3/176/200 7/5/5
f 7/5/7 5/177/201 18/7/8
f 2/8/10 4/178/202 8/9/11
f 9/11/13 1/179/203 3/12/14
f 5/14/16 1/180/204 9/15/17
f 6/17/19 20/20/23 11/18/20
f 19/19/22 10/21/24 11/18/20
f 18/16/18 9/15/17 10/21/24
f 11/22/25 17/26/28 4/23/26
f 10/25/27 16/27/29 17/26/28
f 9/11/13 15/13/15 16/27/29
f 8/28/30 12/30/32 20/29/31
f 12/30/32 13/32/34 19/31/33
f 13/32/34 14/6/9 18/7/8
f 17/33/35 12/30/39 8/28/36
f 16/35/38 13/32/40 12/30/39
f 16/35/38 15/4/4 14/6/6
f 25/36/41 27/181/41 23/37/41
f 23/39/42 27/42/205 34/40/43
f 27/42/45 25/182/206 38/43/46
f 26/44/48 22/54/207 24/45/49
f 29/47/51 21/183/208 23/48/52
f 38/50/54 25/184/209 21/51/55
f 40/53/57 31/57/61 22/54/58
f 39/56/60 30/58/62 31/57/61
f 39/56/60 38/50/54 29/52/56
f 31/59/63 37/63/65 24/60/26
f 30/62/64 36/64/66 37/63/65
f 29/47/51 35/49/53 36/64/66
f 32/65/67 40/68/69 26/44/30
f 32/65/67 33/69/70 39/67/68
f 33/69/70 34/40/47 38/43/46
f 24/70/71 37/71/74 32/65/72
f 37/71/74 36/72/76 33/69/75
f 35/41/44 34/40/43 33/69/75
f 41/73/77 42/185/210 44/74/78
f 54/76/80 48/79/211 47/77/81
f 48/79/83 46/90/212 45/80/84
f 55/81/86 60/186/213 42/82/87
f 49/84/89 47/77/214 45/80/90
f 44/86/92 42/187/215 60/87/93
f 54/89/95 58/92/99 46/90/96
f 54/89/95 53/93/100 59/91/98
f 52/88/94 60/87/93 59/91/98
f 43/94/101 51/97/104 55/95/102
f 51/97/104 50/99/106 56/98/105
f 50/99/106 49/84/89 57/85/91
f 45/80/107 46/90/216 58/100/108
f 57/101/109 58/100/108 59/102/110
f 59/102/110 60/186/213 55/81/86
f 43/75/112 44/74/217 52/104/113
f 51/105/114 52/104/113 53/106/115
f 50/107/116 53/106/115 54/76/80
f 61/108/117 62/188/218 64/109/118
f 69/111/120 74/189/219 68/112/121
f 68/112/123 66/124/220 65/114/124
f 80/115/126 62/190/221 61/116/127
f 67/113/129 65/114/222 77/118/130
f 64/120/132 62/191/223 80/121/133
f 68/112/135 74/125/138 78/123/136
f 74/125/138 73/127/140 79/126/139
f 72/122/134 80/121/133 79/126/139
f 71/128/141 75/132/145 61/129/142
f 71/128/141 70/133/146 76/131/144
f 70/133/146 69/119/131 77/118/130
f 66/124/147 78/192/224 77/134/148
f 77/134/148 78/192/224 79/135/150
f 76/136/151 79/135/150 80/115/126
f 63/110/152 64/109/225 72/137/153
f 72/137/153 73/140/156 70/139/155
f 73/140/156 74/189/219 69/111/120
f 81/141/157 82/193/226 84/142/158
f 89/144/160 94/194/227 88/145/161
f 88/145/163 86/157/228 85/147/164
f 95/148/166 100/170/192 82/149/167
f 87/146/169 85/147/229 97/151/170
f 84/153/172 82/195/230 100/154/173
f 94/156/175 98/159/179 86/157/176
f 93/158/178 99/160/180 98/159/179
f 92/155/174 100/154/173 99/160/180
f 83/161/181 91/164/184 95/162/182
f 91/164/184 90/166/186 96/165/185
f 90/166/186 89/152/171 97/151/170
f 86/157/187 98/196/231 97/167/188
f 97/167/188 98/196/231 99/168/190
f 96/169/191 99/168/190 100/170/192
f 84/142/193 92/172/196 91/171/194
f 92/172/196 93/174/198 90/173/197
f 93/174/198 94/194/227 89/144/160
